<mxfile host="65bd71144e">
    <diagram id="1BcO89aJ5CRY8r2gmmL_" name="Page-1">
        <mxGraphModel dx="203" dy="2197" grid="1" gridSize="10" guides="0" tooltips="1" connect="1" arrows="1" fold="1" page="1" pageScale="1" pageWidth="827" pageHeight="1169" background="none" math="0" shadow="0">
            <root>
                <mxCell id="0"/>
                <mxCell id="1" parent="0"/>
                <mxCell id="febSEECKOxPTXhG7_ZVh-11" value="" style="rounded=1;whiteSpace=wrap;html=1;absoluteArcSize=1;arcSize=14;strokeWidth=2;" parent="1" vertex="1">
                    <mxGeometry x="540" y="-920" width="100" height="100" as="geometry"/>
                </mxCell>
                <mxCell id="febSEECKOxPTXhG7_ZVh-12" value="" style="endArrow=classic;html=1;exitX=0.12;exitY=1.01;exitDx=0;exitDy=0;exitPerimeter=0;" parent="1" source="febSEECKOxPTXhG7_ZVh-11" edge="1">
                    <mxGeometry width="50" height="50" relative="1" as="geometry">
                        <mxPoint x="570" y="-820" as="sourcePoint"/>
                        <mxPoint x="450" y="-720" as="targetPoint"/>
                    </mxGeometry>
                </mxCell>
                <mxCell id="febSEECKOxPTXhG7_ZVh-13" value="" style="endArrow=classic;html=1;entryX=0.5;entryY=0;entryDx=0;entryDy=0;" parent="1" target="febSEECKOxPTXhG7_ZVh-44" edge="1">
                    <mxGeometry width="50" height="50" relative="1" as="geometry">
                        <mxPoint x="630" y="-820" as="sourcePoint"/>
                        <mxPoint x="810" y="-720" as="targetPoint"/>
                    </mxGeometry>
                </mxCell>
                <mxCell id="febSEECKOxPTXhG7_ZVh-15" value="" style="rounded=1;whiteSpace=wrap;html=1;absoluteArcSize=1;arcSize=14;strokeWidth=2;" parent="1" vertex="1">
                    <mxGeometry x="370" y="-720" width="100" height="100" as="geometry"/>
                </mxCell>
                <mxCell id="febSEECKOxPTXhG7_ZVh-16" value="" style="endArrow=classic;html=1;" parent="1" edge="1">
                    <mxGeometry width="50" height="50" relative="1" as="geometry">
                        <mxPoint x="400" y="-620" as="sourcePoint"/>
                        <mxPoint x="340" y="-540" as="targetPoint"/>
                    </mxGeometry>
                </mxCell>
                <mxCell id="febSEECKOxPTXhG7_ZVh-17" value="" style="endArrow=classic;html=1;entryX=0.5;entryY=0;entryDx=0;entryDy=0;" parent="1" target="febSEECKOxPTXhG7_ZVh-47" edge="1">
                    <mxGeometry width="50" height="50" relative="1" as="geometry">
                        <mxPoint x="430" y="-620" as="sourcePoint"/>
                        <mxPoint x="430" y="-540" as="targetPoint"/>
                    </mxGeometry>
                </mxCell>
                <mxCell id="febSEECKOxPTXhG7_ZVh-18" value="" style="endArrow=classic;html=1;entryX=0.5;entryY=0;entryDx=0;entryDy=0;exitX=0.5;exitY=1;exitDx=0;exitDy=0;" parent="1" source="febSEECKOxPTXhG7_ZVh-11" target="febSEECKOxPTXhG7_ZVh-19" edge="1">
                    <mxGeometry width="50" height="50" relative="1" as="geometry">
                        <mxPoint x="574" y="-820" as="sourcePoint"/>
                        <mxPoint x="574" y="-730" as="targetPoint"/>
                    </mxGeometry>
                </mxCell>
                <mxCell id="febSEECKOxPTXhG7_ZVh-19" value="" style="rounded=1;whiteSpace=wrap;html=1;absoluteArcSize=1;arcSize=14;strokeWidth=2;" parent="1" vertex="1">
                    <mxGeometry x="530" y="-720" width="100" height="100" as="geometry"/>
                </mxCell>
                <mxCell id="febSEECKOxPTXhG7_ZVh-23" value="......" style="text;html=1;strokeColor=none;fillColor=none;align=center;verticalAlign=middle;whiteSpace=wrap;rounded=0;fontSize=30;fontStyle=1" parent="1" vertex="1">
                    <mxGeometry x="640" y="-700" width="70" height="20" as="geometry"/>
                </mxCell>
                <mxCell id="febSEECKOxPTXhG7_ZVh-25" value="" style="rounded=1;whiteSpace=wrap;html=1;absoluteArcSize=1;arcSize=14;strokeWidth=2;" parent="1" vertex="1">
                    <mxGeometry x="280" y="-540" width="100" height="100" as="geometry"/>
                </mxCell>
                <mxCell id="febSEECKOxPTXhG7_ZVh-27" value="" style="verticalLabelPosition=bottom;verticalAlign=top;html=1;shape=mxgraph.flowchart.on-page_reference;" parent="1" vertex="1">
                    <mxGeometry x="470" y="-390" width="60" height="60" as="geometry"/>
                </mxCell>
                <mxCell id="febSEECKOxPTXhG7_ZVh-28" value="" style="verticalLabelPosition=bottom;verticalAlign=top;html=1;shape=mxgraph.flowchart.on-page_reference;" parent="1" vertex="1">
                    <mxGeometry x="540" y="-540" width="60" height="60" as="geometry"/>
                </mxCell>
                <mxCell id="febSEECKOxPTXhG7_ZVh-29" value="" style="verticalLabelPosition=bottom;verticalAlign=top;html=1;shape=mxgraph.flowchart.on-page_reference;" parent="1" vertex="1">
                    <mxGeometry x="620" y="-540" width="60" height="60" as="geometry"/>
                </mxCell>
                <mxCell id="febSEECKOxPTXhG7_ZVh-31" value="" style="endArrow=classic;html=1;" parent="1" edge="1">
                    <mxGeometry width="50" height="50" relative="1" as="geometry">
                        <mxPoint x="570" y="-620" as="sourcePoint"/>
                        <mxPoint x="567.090909090909" y="-540" as="targetPoint"/>
                    </mxGeometry>
                </mxCell>
                <mxCell id="febSEECKOxPTXhG7_ZVh-32" value="" style="endArrow=classic;html=1;exitX=0.75;exitY=1;exitDx=0;exitDy=0;" parent="1" source="febSEECKOxPTXhG7_ZVh-19" target="febSEECKOxPTXhG7_ZVh-29" edge="1">
                    <mxGeometry width="50" height="50" relative="1" as="geometry">
                        <mxPoint x="566" y="-600" as="sourcePoint"/>
                        <mxPoint x="616" y="-650" as="targetPoint"/>
                    </mxGeometry>
                </mxCell>
                <mxCell id="febSEECKOxPTXhG7_ZVh-33" value="" style="verticalLabelPosition=bottom;verticalAlign=top;html=1;shape=mxgraph.flowchart.on-page_reference;" parent="1" vertex="1">
                    <mxGeometry x="240" y="-390" width="60" height="60" as="geometry"/>
                </mxCell>
                <mxCell id="febSEECKOxPTXhG7_ZVh-34" value="" style="endArrow=classic;html=1;exitX=0.5;exitY=1;exitDx=0;exitDy=0;entryX=0.5;entryY=0;entryDx=0;entryDy=0;entryPerimeter=0;" parent="1" source="febSEECKOxPTXhG7_ZVh-25" target="febSEECKOxPTXhG7_ZVh-33" edge="1">
                    <mxGeometry width="50" height="50" relative="1" as="geometry">
                        <mxPoint x="530" y="-480" as="sourcePoint"/>
                        <mxPoint x="580" y="-530" as="targetPoint"/>
                    </mxGeometry>
                </mxCell>
                <mxCell id="febSEECKOxPTXhG7_ZVh-35" value="" style="verticalLabelPosition=bottom;verticalAlign=top;html=1;shape=mxgraph.flowchart.on-page_reference;" parent="1" vertex="1">
                    <mxGeometry x="360" y="-390" width="60" height="60" as="geometry"/>
                </mxCell>
                <mxCell id="febSEECKOxPTXhG7_ZVh-36" value="" style="endArrow=classic;html=1;exitX=0.75;exitY=1;exitDx=0;exitDy=0;entryX=0.5;entryY=0;entryDx=0;entryDy=0;entryPerimeter=0;" parent="1" source="febSEECKOxPTXhG7_ZVh-25" target="febSEECKOxPTXhG7_ZVh-35" edge="1">
                    <mxGeometry width="50" height="50" relative="1" as="geometry">
                        <mxPoint x="530" y="-480" as="sourcePoint"/>
                        <mxPoint x="580" y="-530" as="targetPoint"/>
                    </mxGeometry>
                </mxCell>
                <mxCell id="febSEECKOxPTXhG7_ZVh-44" value="" style="rounded=1;whiteSpace=wrap;html=1;absoluteArcSize=1;arcSize=14;strokeWidth=2;" parent="1" vertex="1">
                    <mxGeometry x="730" y="-720" width="100" height="100" as="geometry"/>
                </mxCell>
                <mxCell id="febSEECKOxPTXhG7_ZVh-45" value="" style="verticalLabelPosition=bottom;verticalAlign=top;html=1;shape=mxgraph.flowchart.on-page_reference;" parent="1" vertex="1">
                    <mxGeometry x="760" y="-550" width="60" height="60" as="geometry"/>
                </mxCell>
                <mxCell id="febSEECKOxPTXhG7_ZVh-46" value="" style="endArrow=classic;html=1;exitX=0.5;exitY=1;exitDx=0;exitDy=0;entryX=0.5;entryY=0;entryDx=0;entryDy=0;entryPerimeter=0;" parent="1" source="febSEECKOxPTXhG7_ZVh-44" target="febSEECKOxPTXhG7_ZVh-45" edge="1">
                    <mxGeometry width="50" height="50" relative="1" as="geometry">
                        <mxPoint x="600" y="-510" as="sourcePoint"/>
                        <mxPoint x="650" y="-560" as="targetPoint"/>
                    </mxGeometry>
                </mxCell>
                <mxCell id="febSEECKOxPTXhG7_ZVh-47" value="" style="rounded=1;whiteSpace=wrap;html=1;absoluteArcSize=1;arcSize=14;strokeWidth=2;" parent="1" vertex="1">
                    <mxGeometry x="400" y="-540" width="100" height="100" as="geometry"/>
                </mxCell>
                <mxCell id="febSEECKOxPTXhG7_ZVh-48" value="" style="endArrow=classic;html=1;exitX=0.5;exitY=1;exitDx=0;exitDy=0;entryX=0.5;entryY=0;entryDx=0;entryDy=0;entryPerimeter=0;" parent="1" source="febSEECKOxPTXhG7_ZVh-47" target="febSEECKOxPTXhG7_ZVh-27" edge="1">
                    <mxGeometry width="50" height="50" relative="1" as="geometry">
                        <mxPoint x="600" y="-510" as="sourcePoint"/>
                        <mxPoint x="650" y="-560" as="targetPoint"/>
                    </mxGeometry>
                </mxCell>
                <mxCell id="febSEECKOxPTXhG7_ZVh-49" value="" style="strokeWidth=2;html=1;shape=mxgraph.flowchart.database;whiteSpace=wrap;" parent="1" vertex="1">
                    <mxGeometry x="970" y="-240" width="90" height="140" as="geometry"/>
                </mxCell>
                <mxCell id="febSEECKOxPTXhG7_ZVh-50" value="&lt;h1&gt;只有分支&lt;/h1&gt;&lt;div&gt;只可以有分支结构，不能有对数据，标志位，IO状态的更改。&lt;/div&gt;&lt;div&gt;&lt;br&gt;&lt;/div&gt;&lt;div&gt;具备可测性：将函数接口隔离&lt;/div&gt;" style="text;html=1;strokeColor=none;fillColor=none;spacing=5;spacingTop=-20;whiteSpace=wrap;overflow=hidden;rounded=0;" parent="1" vertex="1">
                    <mxGeometry x="1050" y="-920" width="190" height="120" as="geometry"/>
                </mxCell>
                <mxCell id="febSEECKOxPTXhG7_ZVh-51" value="" style="rounded=1;whiteSpace=wrap;html=1;absoluteArcSize=1;arcSize=14;strokeWidth=2;" parent="1" vertex="1">
                    <mxGeometry x="917" y="-920" width="100" height="100" as="geometry"/>
                </mxCell>
                <mxCell id="febSEECKOxPTXhG7_ZVh-52" value="" style="verticalLabelPosition=bottom;verticalAlign=top;html=1;shape=mxgraph.flowchart.on-page_reference;" parent="1" vertex="1">
                    <mxGeometry x="937" y="-760" width="60" height="60" as="geometry"/>
                </mxCell>
                <mxCell id="febSEECKOxPTXhG7_ZVh-53" value="&lt;h1&gt;单一输入输出&lt;/h1&gt;&lt;p&gt;可以操作数据，标志位，IO状态，但是有准确的输入和单一的输出。&lt;/p&gt;&lt;p&gt;这个要具备可测性。如果不可测，说明还可以再分支&lt;/p&gt;" style="text;html=1;strokeColor=none;fillColor=none;spacing=5;spacingTop=-20;whiteSpace=wrap;overflow=hidden;rounded=0;" parent="1" vertex="1">
                    <mxGeometry x="1050" y="-770" width="190" height="120" as="geometry"/>
                </mxCell>
                <mxCell id="febSEECKOxPTXhG7_ZVh-56" value="" style="endArrow=classic;html=1;exitX=0.145;exitY=0.855;exitDx=0;exitDy=0;exitPerimeter=0;dashed=1;" parent="1" source="febSEECKOxPTXhG7_ZVh-45" edge="1">
                    <mxGeometry width="50" height="50" relative="1" as="geometry">
                        <mxPoint x="1050" y="-350" as="sourcePoint"/>
                        <mxPoint x="630" y="-230" as="targetPoint"/>
                    </mxGeometry>
                </mxCell>
                <mxCell id="febSEECKOxPTXhG7_ZVh-57" value="" style="endArrow=classic;html=1;exitX=0.855;exitY=0.855;exitDx=0;exitDy=0;exitPerimeter=0;dashed=1;" parent="1" source="febSEECKOxPTXhG7_ZVh-35" edge="1">
                    <mxGeometry width="50" height="50" relative="1" as="geometry">
                        <mxPoint x="1050" y="-350" as="sourcePoint"/>
                        <mxPoint x="610" y="-230" as="targetPoint"/>
                    </mxGeometry>
                </mxCell>
                <mxCell id="febSEECKOxPTXhG7_ZVh-58" value="" style="verticalLabelPosition=bottom;verticalAlign=top;html=1;shape=mxgraph.flowchart.on-page_reference;" parent="1" vertex="1">
                    <mxGeometry x="590" y="-230" width="60" height="60" as="geometry"/>
                </mxCell>
                <mxCell id="febSEECKOxPTXhG7_ZVh-59" value="" style="endArrow=classic;html=1;dashed=1;exitX=0.5;exitY=1;exitDx=0;exitDy=0;exitPerimeter=0;entryX=0.5;entryY=0;entryDx=0;entryDy=0;entryPerimeter=0;" parent="1" source="febSEECKOxPTXhG7_ZVh-29" target="febSEECKOxPTXhG7_ZVh-58" edge="1">
                    <mxGeometry width="50" height="50" relative="1" as="geometry">
                        <mxPoint x="1050" y="-350" as="sourcePoint"/>
                        <mxPoint x="1100" y="-400" as="targetPoint"/>
                    </mxGeometry>
                </mxCell>
                <mxCell id="febSEECKOxPTXhG7_ZVh-60" value="" style="shape=flexArrow;endArrow=classic;html=1;endWidth=57.64705882352941;endSize=11.788235294117646;width=36.470588235294116;" parent="1" edge="1">
                    <mxGeometry width="50" height="50" relative="1" as="geometry">
                        <mxPoint x="690" y="-190" as="sourcePoint"/>
                        <mxPoint x="890" y="-190" as="targetPoint"/>
                    </mxGeometry>
                </mxCell>
                <mxCell id="febSEECKOxPTXhG7_ZVh-61" value="" style="verticalLabelPosition=bottom;verticalAlign=top;html=1;shape=mxgraph.flowchart.on-page_reference;" parent="1" vertex="1">
                    <mxGeometry x="890" y="-370" width="60" height="60" as="geometry"/>
                </mxCell>
                <mxCell id="febSEECKOxPTXhG7_ZVh-62" value="" style="verticalLabelPosition=bottom;verticalAlign=top;html=1;shape=mxgraph.flowchart.on-page_reference;" parent="1" vertex="1">
                    <mxGeometry x="980" y="-370" width="60" height="60" as="geometry"/>
                </mxCell>
                <mxCell id="febSEECKOxPTXhG7_ZVh-63" value="" style="verticalLabelPosition=bottom;verticalAlign=top;html=1;shape=mxgraph.flowchart.on-page_reference;" parent="1" vertex="1">
                    <mxGeometry x="1070" y="-370" width="60" height="60" as="geometry"/>
                </mxCell>
                <mxCell id="febSEECKOxPTXhG7_ZVh-64" value="" style="endArrow=classic;html=1;exitX=0.5;exitY=1;exitDx=0;exitDy=0;exitPerimeter=0;entryX=0;entryY=0.15;entryDx=0;entryDy=0;entryPerimeter=0;" parent="1" source="febSEECKOxPTXhG7_ZVh-61" target="febSEECKOxPTXhG7_ZVh-49" edge="1">
                    <mxGeometry width="50" height="50" relative="1" as="geometry">
                        <mxPoint x="970" y="-320" as="sourcePoint"/>
                        <mxPoint x="1020" y="-370" as="targetPoint"/>
                    </mxGeometry>
                </mxCell>
                <mxCell id="febSEECKOxPTXhG7_ZVh-65" value="" style="endArrow=classic;html=1;exitX=0.5;exitY=1;exitDx=0;exitDy=0;exitPerimeter=0;entryX=0.5;entryY=0;entryDx=0;entryDy=0;entryPerimeter=0;" parent="1" source="febSEECKOxPTXhG7_ZVh-62" target="febSEECKOxPTXhG7_ZVh-49" edge="1">
                    <mxGeometry width="50" height="50" relative="1" as="geometry">
                        <mxPoint x="970" y="-320" as="sourcePoint"/>
                        <mxPoint x="1020" y="-370" as="targetPoint"/>
                    </mxGeometry>
                </mxCell>
                <mxCell id="febSEECKOxPTXhG7_ZVh-66" value="" style="endArrow=classic;html=1;exitX=0.5;exitY=1;exitDx=0;exitDy=0;exitPerimeter=0;entryX=0.901;entryY=0.058;entryDx=0;entryDy=0;entryPerimeter=0;" parent="1" source="febSEECKOxPTXhG7_ZVh-63" target="febSEECKOxPTXhG7_ZVh-49" edge="1">
                    <mxGeometry width="50" height="50" relative="1" as="geometry">
                        <mxPoint x="970" y="-320" as="sourcePoint"/>
                        <mxPoint x="1020" y="-370" as="targetPoint"/>
                    </mxGeometry>
                </mxCell>
                <mxCell id="febSEECKOxPTXhG7_ZVh-67" value="" style="rounded=1;whiteSpace=wrap;html=1;absoluteArcSize=1;arcSize=14;strokeWidth=2;" parent="1" vertex="1">
                    <mxGeometry x="1240" y="-220" width="100" height="100" as="geometry"/>
                </mxCell>
                <mxCell id="febSEECKOxPTXhG7_ZVh-68" value="" style="endArrow=classic;html=1;exitX=1.032;exitY=0.374;exitDx=0;exitDy=0;exitPerimeter=0;entryX=0;entryY=0.25;entryDx=0;entryDy=0;" parent="1" source="febSEECKOxPTXhG7_ZVh-49" target="febSEECKOxPTXhG7_ZVh-67" edge="1">
                    <mxGeometry width="50" height="50" relative="1" as="geometry">
                        <mxPoint x="1050" y="-140" as="sourcePoint"/>
                        <mxPoint x="1100" y="-190" as="targetPoint"/>
                    </mxGeometry>
                </mxCell>
                <mxCell id="febSEECKOxPTXhG7_ZVh-69" value="" style="endArrow=classic;html=1;exitX=1.019;exitY=0.558;exitDx=0;exitDy=0;exitPerimeter=0;entryX=0;entryY=0.5;entryDx=0;entryDy=0;" parent="1" source="febSEECKOxPTXhG7_ZVh-49" target="febSEECKOxPTXhG7_ZVh-67" edge="1">
                    <mxGeometry width="50" height="50" relative="1" as="geometry">
                        <mxPoint x="1050" y="-140" as="sourcePoint"/>
                        <mxPoint x="1100" y="-190" as="targetPoint"/>
                    </mxGeometry>
                </mxCell>
                <mxCell id="febSEECKOxPTXhG7_ZVh-70" value="" style="endArrow=classic;html=1;entryX=0;entryY=0.75;entryDx=0;entryDy=0;" parent="1" target="febSEECKOxPTXhG7_ZVh-67" edge="1">
                    <mxGeometry width="50" height="50" relative="1" as="geometry">
                        <mxPoint x="1060" y="-140" as="sourcePoint"/>
                        <mxPoint x="1100" y="-190" as="targetPoint"/>
                    </mxGeometry>
                </mxCell>
                <mxCell id="febSEECKOxPTXhG7_ZVh-71" value="" style="verticalLabelPosition=bottom;verticalAlign=top;html=1;shape=mxgraph.flowchart.on-page_reference;" parent="1" vertex="1">
                    <mxGeometry x="1260" y="-70" width="60" height="60" as="geometry"/>
                </mxCell>
                <mxCell id="febSEECKOxPTXhG7_ZVh-72" value="" style="endArrow=classic;html=1;exitX=0.5;exitY=1;exitDx=0;exitDy=0;entryX=0.5;entryY=0;entryDx=0;entryDy=0;entryPerimeter=0;" parent="1" source="febSEECKOxPTXhG7_ZVh-67" target="febSEECKOxPTXhG7_ZVh-71" edge="1">
                    <mxGeometry width="50" height="50" relative="1" as="geometry">
                        <mxPoint x="1050" y="-140" as="sourcePoint"/>
                        <mxPoint x="1100" y="-190" as="targetPoint"/>
                    </mxGeometry>
                </mxCell>
                <mxCell id="febSEECKOxPTXhG7_ZVh-73" value="" style="strokeWidth=2;html=1;shape=mxgraph.flowchart.database;whiteSpace=wrap;" parent="1" vertex="1">
                    <mxGeometry x="937" y="-620" width="63" height="80" as="geometry"/>
                </mxCell>
                <mxCell id="febSEECKOxPTXhG7_ZVh-74" value="&lt;h1&gt;数据，标志位&lt;/h1&gt;&lt;div&gt;接收单元修改的值；用于控制相互关联的单元之间的联系&lt;/div&gt;" style="text;html=1;strokeColor=none;fillColor=none;spacing=5;spacingTop=-20;whiteSpace=wrap;overflow=hidden;rounded=0;" parent="1" vertex="1">
                    <mxGeometry x="1040" y="-620" width="190" height="120" as="geometry"/>
                </mxCell>
                <mxCell id="febSEECKOxPTXhG7_ZVh-75" value="" style="strokeWidth=2;html=1;shape=mxgraph.flowchart.annotation_2;align=left;labelPosition=right;pointerEvents=1;" parent="1" vertex="1">
                    <mxGeometry x="190" y="-930" width="50" height="780" as="geometry"/>
                </mxCell>
                <mxCell id="febSEECKOxPTXhG7_ZVh-76" value="&lt;h1&gt;主体结构&lt;/h1&gt;&lt;p&gt;应该符合业务逻辑&lt;/p&gt;" style="text;html=1;strokeColor=none;fillColor=none;spacing=5;spacingTop=-20;whiteSpace=wrap;overflow=hidden;rounded=0;" parent="1" vertex="1">
                    <mxGeometry x="60" y="-560" width="190" height="120" as="geometry"/>
                </mxCell>
                <mxCell id="febSEECKOxPTXhG7_ZVh-82" value="" style="rounded=1;whiteSpace=wrap;html=1;absoluteArcSize=1;arcSize=14;strokeWidth=2;" parent="1" vertex="1">
                    <mxGeometry x="520" y="140" width="100" height="100" as="geometry"/>
                </mxCell>
                <mxCell id="febSEECKOxPTXhG7_ZVh-85" value="" style="verticalLabelPosition=bottom;verticalAlign=top;html=1;shape=mxgraph.flowchart.on-page_reference;" parent="1" vertex="1">
                    <mxGeometry x="440" y="290" width="60" height="60" as="geometry"/>
                </mxCell>
                <mxCell id="febSEECKOxPTXhG7_ZVh-86" value="" style="rounded=1;whiteSpace=wrap;html=1;absoluteArcSize=1;arcSize=14;strokeWidth=2;" parent="1" vertex="1">
                    <mxGeometry x="570" y="290" width="100" height="100" as="geometry"/>
                </mxCell>
                <mxCell id="febSEECKOxPTXhG7_ZVh-87" value="" style="rounded=1;whiteSpace=wrap;html=1;absoluteArcSize=1;arcSize=14;strokeWidth=2;" parent="1" vertex="1">
                    <mxGeometry x="490" y="450" width="100" height="100" as="geometry"/>
                </mxCell>
                <mxCell id="febSEECKOxPTXhG7_ZVh-88" value="" style="verticalLabelPosition=bottom;verticalAlign=top;html=1;shape=mxgraph.flowchart.on-page_reference;" parent="1" vertex="1">
                    <mxGeometry x="510" y="470" width="60" height="60" as="geometry"/>
                </mxCell>
                <mxCell id="febSEECKOxPTXhG7_ZVh-89" value="" style="rounded=1;whiteSpace=wrap;html=1;absoluteArcSize=1;arcSize=14;strokeWidth=2;" parent="1" vertex="1">
                    <mxGeometry x="620" y="450" width="100" height="100" as="geometry"/>
                </mxCell>
                <mxCell id="febSEECKOxPTXhG7_ZVh-90" value="" style="verticalLabelPosition=bottom;verticalAlign=top;html=1;shape=mxgraph.flowchart.on-page_reference;" parent="1" vertex="1">
                    <mxGeometry x="747" y="450" width="190" height="190" as="geometry"/>
                </mxCell>
                <mxCell id="febSEECKOxPTXhG7_ZVh-91" value="" style="rounded=1;whiteSpace=wrap;html=1;absoluteArcSize=1;arcSize=14;strokeWidth=2;" parent="1" vertex="1">
                    <mxGeometry x="787" y="485" width="110" height="120" as="geometry"/>
                </mxCell>
                <mxCell id="febSEECKOxPTXhG7_ZVh-92" value="" style="verticalLabelPosition=bottom;verticalAlign=top;html=1;shape=mxgraph.flowchart.on-page_reference;" parent="1" vertex="1">
                    <mxGeometry x="795" y="522.5" width="35" height="35" as="geometry"/>
                </mxCell>
                <mxCell id="febSEECKOxPTXhG7_ZVh-93" value="" style="verticalLabelPosition=bottom;verticalAlign=top;html=1;shape=mxgraph.flowchart.on-page_reference;" parent="1" vertex="1">
                    <mxGeometry x="850" y="522.5" width="35" height="35" as="geometry"/>
                </mxCell>
                <mxCell id="febSEECKOxPTXhG7_ZVh-94" value="" style="endArrow=classic;html=1;exitX=0.25;exitY=1;exitDx=0;exitDy=0;entryX=0.5;entryY=0;entryDx=0;entryDy=0;entryPerimeter=0;" parent="1" source="febSEECKOxPTXhG7_ZVh-82" target="febSEECKOxPTXhG7_ZVh-85" edge="1">
                    <mxGeometry width="50" height="50" relative="1" as="geometry">
                        <mxPoint x="840" y="340" as="sourcePoint"/>
                        <mxPoint x="890" y="290" as="targetPoint"/>
                    </mxGeometry>
                </mxCell>
                <mxCell id="febSEECKOxPTXhG7_ZVh-95" value="" style="endArrow=classic;html=1;exitX=0.5;exitY=1;exitDx=0;exitDy=0;entryX=0.5;entryY=0;entryDx=0;entryDy=0;" parent="1" source="febSEECKOxPTXhG7_ZVh-82" target="febSEECKOxPTXhG7_ZVh-86" edge="1">
                    <mxGeometry width="50" height="50" relative="1" as="geometry">
                        <mxPoint x="840" y="340" as="sourcePoint"/>
                        <mxPoint x="890" y="290" as="targetPoint"/>
                    </mxGeometry>
                </mxCell>
                <mxCell id="febSEECKOxPTXhG7_ZVh-96" value="" style="endArrow=classic;html=1;exitX=0.25;exitY=1;exitDx=0;exitDy=0;entryX=0.5;entryY=0;entryDx=0;entryDy=0;" parent="1" source="febSEECKOxPTXhG7_ZVh-86" target="febSEECKOxPTXhG7_ZVh-87" edge="1">
                    <mxGeometry width="50" height="50" relative="1" as="geometry">
                        <mxPoint x="840" y="340" as="sourcePoint"/>
                        <mxPoint x="890" y="290" as="targetPoint"/>
                    </mxGeometry>
                </mxCell>
                <mxCell id="febSEECKOxPTXhG7_ZVh-97" value="" style="endArrow=classic;html=1;exitX=0.5;exitY=1;exitDx=0;exitDy=0;entryX=0.5;entryY=0;entryDx=0;entryDy=0;" parent="1" source="febSEECKOxPTXhG7_ZVh-86" target="febSEECKOxPTXhG7_ZVh-89" edge="1">
                    <mxGeometry width="50" height="50" relative="1" as="geometry">
                        <mxPoint x="840" y="340" as="sourcePoint"/>
                        <mxPoint x="890" y="290" as="targetPoint"/>
                    </mxGeometry>
                </mxCell>
                <mxCell id="febSEECKOxPTXhG7_ZVh-98" value="" style="endArrow=classic;html=1;exitX=0.75;exitY=1;exitDx=0;exitDy=0;entryX=0.437;entryY=0;entryDx=0;entryDy=0;entryPerimeter=0;" parent="1" source="febSEECKOxPTXhG7_ZVh-86" target="febSEECKOxPTXhG7_ZVh-90" edge="1">
                    <mxGeometry width="50" height="50" relative="1" as="geometry">
                        <mxPoint x="840" y="340" as="sourcePoint"/>
                        <mxPoint x="890" y="290" as="targetPoint"/>
                    </mxGeometry>
                </mxCell>
                <mxCell id="febSEECKOxPTXhG7_ZVh-99" value="" style="strokeWidth=2;html=1;shape=mxgraph.flowchart.annotation_2;align=left;labelPosition=right;pointerEvents=1;" parent="1" vertex="1">
                    <mxGeometry x="330" y="120" width="60" height="520" as="geometry"/>
                </mxCell>
                <mxCell id="febSEECKOxPTXhG7_ZVh-100" value="&lt;h1&gt;主体结构&lt;/h1&gt;&lt;p&gt;不是按照业务逻辑流程&lt;/p&gt;&lt;p&gt;结构不清晰，耦合太多&lt;/p&gt;&lt;p&gt;不具有可测性&lt;/p&gt;" style="text;html=1;strokeColor=none;fillColor=none;spacing=5;spacingTop=-20;whiteSpace=wrap;overflow=hidden;rounded=0;" parent="1" vertex="1">
                    <mxGeometry x="180" y="320" width="190" height="120" as="geometry"/>
                </mxCell>
                <mxCell id="febSEECKOxPTXhG7_ZVh-101" value="&lt;h1&gt;为什么主体结构要按照业务逻辑流程&lt;/h1&gt;&lt;p&gt;因为，读起来更贴近人的正常思维；便于阅读；可维护性比较高；&lt;/p&gt;" style="text;html=1;strokeColor=none;fillColor=none;spacing=5;spacingTop=-20;whiteSpace=wrap;overflow=hidden;rounded=0;" parent="1" vertex="1">
                    <mxGeometry x="10" y="20" width="330" height="150" as="geometry"/>
                </mxCell>
                <mxCell id="febSEECKOxPTXhG7_ZVh-102" value="" style="verticalLabelPosition=bottom;verticalAlign=top;html=1;shape=mxgraph.flowchart.on-page_reference;" parent="1" vertex="1">
                    <mxGeometry x="950" y="150" width="60" height="60" as="geometry"/>
                </mxCell>
                <mxCell id="febSEECKOxPTXhG7_ZVh-103" value="" style="verticalLabelPosition=bottom;verticalAlign=top;html=1;shape=mxgraph.flowchart.on-page_reference;" parent="1" vertex="1">
                    <mxGeometry x="1040" y="150" width="60" height="60" as="geometry"/>
                </mxCell>
                <mxCell id="febSEECKOxPTXhG7_ZVh-104" value="" style="verticalLabelPosition=bottom;verticalAlign=top;html=1;shape=mxgraph.flowchart.on-page_reference;" parent="1" vertex="1">
                    <mxGeometry x="1190" y="150" width="60" height="60" as="geometry"/>
                </mxCell>
                <mxCell id="febSEECKOxPTXhG7_ZVh-105" value="......" style="text;html=1;strokeColor=none;fillColor=none;align=center;verticalAlign=middle;whiteSpace=wrap;rounded=0;fontStyle=1;fontSize=31;horizontal=1;" parent="1" vertex="1">
                    <mxGeometry x="1070" y="160" width="150" height="40" as="geometry"/>
                </mxCell>
                <mxCell id="febSEECKOxPTXhG7_ZVh-106" value="" style="verticalLabelPosition=bottom;verticalAlign=top;html=1;shape=mxgraph.flowchart.on-page_reference;fontSize=30;" parent="1" vertex="1">
                    <mxGeometry x="1080" y="330" width="60" height="60" as="geometry"/>
                </mxCell>
                <mxCell id="febSEECKOxPTXhG7_ZVh-107" value="" style="endArrow=classic;html=1;fontSize=30;exitX=0.5;exitY=1;exitDx=0;exitDy=0;exitPerimeter=0;entryX=0.145;entryY=0.145;entryDx=0;entryDy=0;entryPerimeter=0;" parent="1" source="febSEECKOxPTXhG7_ZVh-102" target="febSEECKOxPTXhG7_ZVh-106" edge="1">
                    <mxGeometry width="50" height="50" relative="1" as="geometry">
                        <mxPoint x="1010" y="300" as="sourcePoint"/>
                        <mxPoint x="1060" y="250" as="targetPoint"/>
                    </mxGeometry>
                </mxCell>
                <mxCell id="febSEECKOxPTXhG7_ZVh-108" value="" style="endArrow=classic;html=1;fontSize=30;exitX=0.5;exitY=1;exitDx=0;exitDy=0;exitPerimeter=0;entryX=0.5;entryY=0;entryDx=0;entryDy=0;entryPerimeter=0;" parent="1" source="febSEECKOxPTXhG7_ZVh-103" target="febSEECKOxPTXhG7_ZVh-106" edge="1">
                    <mxGeometry width="50" height="50" relative="1" as="geometry">
                        <mxPoint x="1010" y="300" as="sourcePoint"/>
                        <mxPoint x="1060" y="250" as="targetPoint"/>
                    </mxGeometry>
                </mxCell>
                <mxCell id="febSEECKOxPTXhG7_ZVh-109" value="" style="endArrow=classic;html=1;fontSize=30;exitX=0.5;exitY=1;exitDx=0;exitDy=0;exitPerimeter=0;entryX=0.855;entryY=0.145;entryDx=0;entryDy=0;entryPerimeter=0;" parent="1" source="febSEECKOxPTXhG7_ZVh-104" target="febSEECKOxPTXhG7_ZVh-106" edge="1">
                    <mxGeometry width="50" height="50" relative="1" as="geometry">
                        <mxPoint x="1010" y="300" as="sourcePoint"/>
                        <mxPoint x="1060" y="250" as="targetPoint"/>
                    </mxGeometry>
                </mxCell>
                <mxCell id="febSEECKOxPTXhG7_ZVh-110" value="&lt;h1&gt;单元之间关联&lt;/h1&gt;&lt;p style=&quot;font-size: 12px&quot;&gt;多个单元控制一个单元，没有控制器，导致代码很分散。&lt;/p&gt;&lt;p style=&quot;font-size: 12px&quot;&gt;彼此之间的联系紧密，如果要修改或添加功能，很容易混淆或遗漏&lt;/p&gt;" style="text;html=1;strokeColor=none;fillColor=none;spacing=5;spacingTop=-20;whiteSpace=wrap;overflow=hidden;rounded=0;fontSize=12;" parent="1" vertex="1">
                    <mxGeometry x="1260" y="240" width="220" height="140" as="geometry"/>
                </mxCell>
                <mxCell id="febSEECKOxPTXhG7_ZVh-111" value="" style="rounded=1;whiteSpace=wrap;html=1;absoluteArcSize=1;arcSize=14;strokeWidth=2;fontSize=12;" parent="1" vertex="1">
                    <mxGeometry x="42" y="820" width="150" height="310" as="geometry"/>
                </mxCell>
                <mxCell id="febSEECKOxPTXhG7_ZVh-112" value="RelayControl" style="text;html=1;strokeColor=none;fillColor=none;align=center;verticalAlign=middle;whiteSpace=wrap;rounded=0;fontSize=12;" parent="1" vertex="1">
                    <mxGeometry x="42" y="780" width="90" height="30" as="geometry"/>
                </mxCell>
                <mxCell id="febSEECKOxPTXhG7_ZVh-114" value="&lt;div&gt;&lt;span&gt;Discover&lt;/span&gt;&lt;/div&gt;" style="rounded=1;whiteSpace=wrap;html=1;absoluteArcSize=1;arcSize=14;strokeWidth=2;fontSize=12;align=center;" parent="1" vertex="1">
                    <mxGeometry x="72" y="840" width="90" height="110" as="geometry"/>
                </mxCell>
                <mxCell id="febSEECKOxPTXhG7_ZVh-115" value="" style="rounded=1;whiteSpace=wrap;html=1;absoluteArcSize=1;arcSize=14;strokeWidth=2;fontSize=12;" parent="1" vertex="1">
                    <mxGeometry x="72" y="960" width="90" height="50" as="geometry"/>
                </mxCell>
                <mxCell id="febSEECKOxPTXhG7_ZVh-116" value="IO_Control" style="verticalLabelPosition=bottom;verticalAlign=top;html=1;shape=mxgraph.flowchart.on-page_reference;fontSize=12;" parent="1" vertex="1">
                    <mxGeometry x="72" y="1040" width="60" height="60" as="geometry"/>
                </mxCell>
                <mxCell id="febSEECKOxPTXhG7_ZVh-117" value="IO_Control" style="verticalLabelPosition=bottom;verticalAlign=top;html=1;shape=mxgraph.flowchart.on-page_reference;fontSize=12;" parent="1" vertex="1">
                    <mxGeometry x="102" y="900" width="30" height="30" as="geometry"/>
                </mxCell>
                <mxCell id="febSEECKOxPTXhG7_ZVh-118" value="Discover_Timer" style="rounded=1;whiteSpace=wrap;html=1;absoluteArcSize=1;arcSize=14;strokeWidth=2;fontSize=12;" parent="1" vertex="1">
                    <mxGeometry x="216" y="840" width="96" height="50" as="geometry"/>
                </mxCell>
                <mxCell id="febSEECKOxPTXhG7_ZVh-119" value="Discover_Timer" style="verticalLabelPosition=bottom;verticalAlign=top;html=1;shape=mxgraph.flowchart.on-page_reference;fontSize=12;" parent="1" vertex="1">
                    <mxGeometry x="356" y="830" width="60" height="60" as="geometry"/>
                </mxCell>
                <mxCell id="febSEECKOxPTXhG7_ZVh-120" value="&lt;span&gt;IR_CMD_Flash&lt;/span&gt;" style="verticalLabelPosition=bottom;verticalAlign=top;html=1;shape=mxgraph.flowchart.on-page_reference;fontSize=12;" parent="1" vertex="1">
                    <mxGeometry x="90" y="960" width="54" height="50" as="geometry"/>
                </mxCell>
                <mxCell id="febSEECKOxPTXhG7_ZVh-122" value="" style="endArrow=classic;html=1;fontSize=12;exitX=1;exitY=0.25;exitDx=0;exitDy=0;" parent="1" source="febSEECKOxPTXhG7_ZVh-114" edge="1">
                    <mxGeometry width="50" height="50" relative="1" as="geometry">
                        <mxPoint x="332" y="910" as="sourcePoint"/>
                        <mxPoint x="212" y="868" as="targetPoint"/>
                    </mxGeometry>
                </mxCell>
                <mxCell id="febSEECKOxPTXhG7_ZVh-123" value="" style="endArrow=classic;html=1;fontSize=12;exitX=1;exitY=0.5;exitDx=0;exitDy=0;entryX=0;entryY=0.5;entryDx=0;entryDy=0;entryPerimeter=0;" parent="1" source="febSEECKOxPTXhG7_ZVh-118" target="febSEECKOxPTXhG7_ZVh-119" edge="1">
                    <mxGeometry width="50" height="50" relative="1" as="geometry">
                        <mxPoint x="316" y="910" as="sourcePoint"/>
                        <mxPoint x="366" y="860" as="targetPoint"/>
                    </mxGeometry>
                </mxCell>
                <mxCell id="febSEECKOxPTXhG7_ZVh-124" value="" style="shape=flexArrow;endArrow=classic;html=1;fontSize=12;width=18;endSize=6;" parent="1" edge="1">
                    <mxGeometry width="50" height="50" relative="1" as="geometry">
                        <mxPoint x="442" y="974.5" as="sourcePoint"/>
                        <mxPoint x="512" y="974.5" as="targetPoint"/>
                    </mxGeometry>
                </mxCell>
                <mxCell id="febSEECKOxPTXhG7_ZVh-126" value="IO_Control" style="rounded=1;whiteSpace=wrap;html=1;absoluteArcSize=1;arcSize=14;strokeWidth=2;fontSize=12;" parent="1" vertex="1">
                    <mxGeometry x="1442" y="1030" width="80" height="40" as="geometry"/>
                </mxCell>
                <mxCell id="febSEECKOxPTXhG7_ZVh-128" value="IO_Control" style="verticalLabelPosition=bottom;verticalAlign=top;html=1;shape=mxgraph.flowchart.on-page_reference;fontSize=12;" parent="1" vertex="1">
                    <mxGeometry x="1577" y="1030" width="60" height="60" as="geometry"/>
                </mxCell>
                <mxCell id="febSEECKOxPTXhG7_ZVh-131" value="Relay_Flash" style="rounded=1;whiteSpace=wrap;html=1;absoluteArcSize=1;arcSize=14;strokeWidth=2;fontSize=12;" parent="1" vertex="1">
                    <mxGeometry x="887" y="1110" width="80" height="40" as="geometry"/>
                </mxCell>
                <mxCell id="febSEECKOxPTXhG7_ZVh-132" value="DIscover" style="rounded=1;whiteSpace=wrap;html=1;absoluteArcSize=1;arcSize=14;strokeWidth=2;fontSize=12;" parent="1" vertex="1">
                    <mxGeometry x="887" y="1020" width="80" height="40" as="geometry"/>
                </mxCell>
                <mxCell id="febSEECKOxPTXhG7_ZVh-133" value="AutoPir, MT..." style="rounded=1;whiteSpace=wrap;html=1;absoluteArcSize=1;arcSize=14;strokeWidth=2;fontSize=12;" parent="1" vertex="1">
                    <mxGeometry x="887" y="925" width="80" height="40" as="geometry"/>
                </mxCell>
                <mxCell id="febSEECKOxPTXhG7_ZVh-134" value="IR_CMD" style="rounded=1;whiteSpace=wrap;html=1;absoluteArcSize=1;arcSize=14;strokeWidth=2;fontSize=12;" parent="1" vertex="1">
                    <mxGeometry x="887" y="840" width="80" height="40" as="geometry"/>
                </mxCell>
                <mxCell id="febSEECKOxPTXhG7_ZVh-135" value="TE_Switch" style="rounded=1;whiteSpace=wrap;html=1;absoluteArcSize=1;arcSize=14;strokeWidth=2;fontSize=12;" parent="1" vertex="1">
                    <mxGeometry x="887" y="750" width="80" height="40" as="geometry"/>
                </mxCell>
                <mxCell id="febSEECKOxPTXhG7_ZVh-136" value="TE_Switch" style="verticalLabelPosition=bottom;verticalAlign=top;html=1;shape=mxgraph.flowchart.on-page_reference;fontSize=12;" parent="1" vertex="1">
                    <mxGeometry x="1057" y="740" width="60" height="60" as="geometry"/>
                </mxCell>
                <mxCell id="febSEECKOxPTXhG7_ZVh-137" value="" style="verticalLabelPosition=bottom;verticalAlign=top;html=1;shape=mxgraph.flowchart.on-page_reference;fontSize=12;" parent="1" vertex="1">
                    <mxGeometry x="1057" y="840" width="60" height="60" as="geometry"/>
                </mxCell>
                <mxCell id="febSEECKOxPTXhG7_ZVh-138" value="" style="verticalLabelPosition=bottom;verticalAlign=top;html=1;shape=mxgraph.flowchart.on-page_reference;fontSize=12;" parent="1" vertex="1">
                    <mxGeometry x="1057" y="930" width="60" height="60" as="geometry"/>
                </mxCell>
                <mxCell id="febSEECKOxPTXhG7_ZVh-139" value="" style="verticalLabelPosition=bottom;verticalAlign=top;html=1;shape=mxgraph.flowchart.on-page_reference;fontSize=12;" parent="1" vertex="1">
                    <mxGeometry x="1057" y="1030" width="60" height="60" as="geometry"/>
                </mxCell>
                <mxCell id="febSEECKOxPTXhG7_ZVh-140" value="" style="verticalLabelPosition=bottom;verticalAlign=top;html=1;shape=mxgraph.flowchart.on-page_reference;fontSize=12;" parent="1" vertex="1">
                    <mxGeometry x="1057" y="1130" width="60" height="60" as="geometry"/>
                </mxCell>
                <mxCell id="febSEECKOxPTXhG7_ZVh-141" value="" style="endArrow=classic;html=1;fontSize=12;exitX=1;exitY=0.5;exitDx=0;exitDy=0;entryX=0;entryY=0.5;entryDx=0;entryDy=0;entryPerimeter=0;" parent="1" source="febSEECKOxPTXhG7_ZVh-135" target="febSEECKOxPTXhG7_ZVh-136" edge="1">
                    <mxGeometry width="50" height="50" relative="1" as="geometry">
                        <mxPoint x="1167" y="980" as="sourcePoint"/>
                        <mxPoint x="1217" y="930" as="targetPoint"/>
                    </mxGeometry>
                </mxCell>
                <mxCell id="febSEECKOxPTXhG7_ZVh-143" value="" style="endArrow=classic;html=1;fontSize=12;exitX=1;exitY=0.5;exitDx=0;exitDy=0;entryX=0;entryY=0.5;entryDx=0;entryDy=0;entryPerimeter=0;" parent="1" source="febSEECKOxPTXhG7_ZVh-134" target="febSEECKOxPTXhG7_ZVh-137" edge="1">
                    <mxGeometry width="50" height="50" relative="1" as="geometry">
                        <mxPoint x="1167" y="980" as="sourcePoint"/>
                        <mxPoint x="1217" y="930" as="targetPoint"/>
                    </mxGeometry>
                </mxCell>
                <mxCell id="febSEECKOxPTXhG7_ZVh-144" value="" style="endArrow=classic;html=1;fontSize=12;exitX=1;exitY=0.5;exitDx=0;exitDy=0;entryX=0;entryY=0.5;entryDx=0;entryDy=0;entryPerimeter=0;" parent="1" source="febSEECKOxPTXhG7_ZVh-133" target="febSEECKOxPTXhG7_ZVh-138" edge="1">
                    <mxGeometry width="50" height="50" relative="1" as="geometry">
                        <mxPoint x="1167" y="980" as="sourcePoint"/>
                        <mxPoint x="1217" y="930" as="targetPoint"/>
                    </mxGeometry>
                </mxCell>
                <mxCell id="febSEECKOxPTXhG7_ZVh-145" value="" style="endArrow=classic;html=1;fontSize=12;exitX=1;exitY=0.5;exitDx=0;exitDy=0;entryX=0;entryY=0.5;entryDx=0;entryDy=0;entryPerimeter=0;" parent="1" source="febSEECKOxPTXhG7_ZVh-132" target="febSEECKOxPTXhG7_ZVh-139" edge="1">
                    <mxGeometry width="50" height="50" relative="1" as="geometry">
                        <mxPoint x="1167" y="980" as="sourcePoint"/>
                        <mxPoint x="1217" y="930" as="targetPoint"/>
                    </mxGeometry>
                </mxCell>
                <mxCell id="febSEECKOxPTXhG7_ZVh-146" value="" style="endArrow=classic;html=1;fontSize=12;exitX=1;exitY=0.5;exitDx=0;exitDy=0;entryX=0;entryY=0.5;entryDx=0;entryDy=0;entryPerimeter=0;" parent="1" source="febSEECKOxPTXhG7_ZVh-131" target="febSEECKOxPTXhG7_ZVh-140" edge="1">
                    <mxGeometry width="50" height="50" relative="1" as="geometry">
                        <mxPoint x="1167" y="980" as="sourcePoint"/>
                        <mxPoint x="1217" y="930" as="targetPoint"/>
                    </mxGeometry>
                </mxCell>
                <mxCell id="febSEECKOxPTXhG7_ZVh-147" value="" style="strokeWidth=2;html=1;shape=mxgraph.flowchart.database;whiteSpace=wrap;fontSize=12;" parent="1" vertex="1">
                    <mxGeometry x="1274" y="870" width="80" height="140" as="geometry"/>
                </mxCell>
                <mxCell id="febSEECKOxPTXhG7_ZVh-148" value="RelaySelect&lt;br&gt;F_IO_Relay_Set" style="rounded=1;whiteSpace=wrap;html=1;absoluteArcSize=1;arcSize=14;strokeWidth=2;fontSize=12;" parent="1" vertex="1">
                    <mxGeometry x="1442" y="900" width="100" height="100" as="geometry"/>
                </mxCell>
                <mxCell id="febSEECKOxPTXhG7_ZVh-149" value="" style="endArrow=classic;html=1;fontSize=12;exitX=1;exitY=0.5;exitDx=0;exitDy=0;exitPerimeter=0;entryX=0;entryY=0.286;entryDx=0;entryDy=0;entryPerimeter=0;" parent="1" edge="1">
                    <mxGeometry width="50" height="50" relative="1" as="geometry">
                        <mxPoint x="1116" y="770" as="sourcePoint"/>
                        <mxPoint x="1273" y="910.04" as="targetPoint"/>
                    </mxGeometry>
                </mxCell>
                <mxCell id="febSEECKOxPTXhG7_ZVh-156" value="Flag" style="edgeLabel;html=1;align=center;verticalAlign=middle;resizable=0;points=[];fontSize=12;" parent="febSEECKOxPTXhG7_ZVh-149" vertex="1" connectable="0">
                    <mxGeometry x="-0.28" y="-1" relative="1" as="geometry">
                        <mxPoint as="offset"/>
                    </mxGeometry>
                </mxCell>
                <mxCell id="febSEECKOxPTXhG7_ZVh-150" value="" style="endArrow=classic;html=1;fontSize=12;exitX=1;exitY=0.5;exitDx=0;exitDy=0;exitPerimeter=0;entryX=0.038;entryY=0.429;entryDx=0;entryDy=0;entryPerimeter=0;" parent="1" source="febSEECKOxPTXhG7_ZVh-137" target="febSEECKOxPTXhG7_ZVh-147" edge="1">
                    <mxGeometry width="50" height="50" relative="1" as="geometry">
                        <mxPoint x="1347" y="1010" as="sourcePoint"/>
                        <mxPoint x="1397" y="960" as="targetPoint"/>
                    </mxGeometry>
                </mxCell>
                <mxCell id="febSEECKOxPTXhG7_ZVh-151" value="" style="endArrow=classic;html=1;fontSize=12;exitX=1;exitY=0.5;exitDx=0;exitDy=0;exitPerimeter=0;entryX=0.038;entryY=0.571;entryDx=0;entryDy=0;entryPerimeter=0;" parent="1" source="febSEECKOxPTXhG7_ZVh-138" target="febSEECKOxPTXhG7_ZVh-147" edge="1">
                    <mxGeometry width="50" height="50" relative="1" as="geometry">
                        <mxPoint x="1347" y="1010" as="sourcePoint"/>
                        <mxPoint x="1267" y="950" as="targetPoint"/>
                    </mxGeometry>
                </mxCell>
                <mxCell id="febSEECKOxPTXhG7_ZVh-152" value="" style="endArrow=classic;html=1;fontSize=12;exitX=1;exitY=0.5;exitDx=0;exitDy=0;exitPerimeter=0;entryX=0;entryY=0.721;entryDx=0;entryDy=0;entryPerimeter=0;" parent="1" source="febSEECKOxPTXhG7_ZVh-139" target="febSEECKOxPTXhG7_ZVh-147" edge="1">
                    <mxGeometry width="50" height="50" relative="1" as="geometry">
                        <mxPoint x="1347" y="1010" as="sourcePoint"/>
                        <mxPoint x="1397" y="960" as="targetPoint"/>
                    </mxGeometry>
                </mxCell>
                <mxCell id="febSEECKOxPTXhG7_ZVh-153" value="" style="endArrow=classic;html=1;fontSize=12;exitX=1;exitY=0.5;exitDx=0;exitDy=0;exitPerimeter=0;entryX=0;entryY=0.85;entryDx=0;entryDy=0;entryPerimeter=0;" parent="1" source="febSEECKOxPTXhG7_ZVh-140" target="febSEECKOxPTXhG7_ZVh-147" edge="1">
                    <mxGeometry width="50" height="50" relative="1" as="geometry">
                        <mxPoint x="1347" y="1010" as="sourcePoint"/>
                        <mxPoint x="1397" y="960" as="targetPoint"/>
                    </mxGeometry>
                </mxCell>
                <mxCell id="febSEECKOxPTXhG7_ZVh-155" value="Flag" style="shape=flexArrow;endArrow=classic;startArrow=classic;html=1;fontSize=12;entryX=0;entryY=0.5;entryDx=0;entryDy=0;exitX=1.05;exitY=0.579;exitDx=0;exitDy=0;exitPerimeter=0;" parent="1" source="febSEECKOxPTXhG7_ZVh-147" target="febSEECKOxPTXhG7_ZVh-148" edge="1">
                    <mxGeometry width="50" height="50" relative="1" as="geometry">
                        <mxPoint x="1347" y="1010" as="sourcePoint"/>
                        <mxPoint x="1397" y="960" as="targetPoint"/>
                    </mxGeometry>
                </mxCell>
                <mxCell id="febSEECKOxPTXhG7_ZVh-157" value="" style="endArrow=classic;html=1;fontSize=12;exitX=1;exitY=0.85;exitDx=0;exitDy=0;exitPerimeter=0;entryX=0;entryY=0.5;entryDx=0;entryDy=0;" parent="1" source="febSEECKOxPTXhG7_ZVh-147" target="febSEECKOxPTXhG7_ZVh-126" edge="1">
                    <mxGeometry width="50" height="50" relative="1" as="geometry">
                        <mxPoint x="1347" y="1010" as="sourcePoint"/>
                        <mxPoint x="1397" y="960" as="targetPoint"/>
                    </mxGeometry>
                </mxCell>
                <mxCell id="febSEECKOxPTXhG7_ZVh-160" value="Text" style="edgeLabel;html=1;align=center;verticalAlign=middle;resizable=0;points=[];fontSize=12;" parent="febSEECKOxPTXhG7_ZVh-157" vertex="1" connectable="0">
                    <mxGeometry x="-0.5534" y="-3" relative="1" as="geometry">
                        <mxPoint as="offset"/>
                    </mxGeometry>
                </mxCell>
                <mxCell id="febSEECKOxPTXhG7_ZVh-161" value="F_IO_Relay_Set" style="edgeLabel;html=1;align=center;verticalAlign=middle;resizable=0;points=[];fontSize=12;" parent="febSEECKOxPTXhG7_ZVh-157" vertex="1" connectable="0">
                    <mxGeometry x="-0.3279" y="4" relative="1" as="geometry">
                        <mxPoint as="offset"/>
                    </mxGeometry>
                </mxCell>
                <mxCell id="febSEECKOxPTXhG7_ZVh-158" value="" style="endArrow=classic;html=1;fontSize=12;exitX=1;exitY=0.5;exitDx=0;exitDy=0;entryX=0;entryY=0.5;entryDx=0;entryDy=0;entryPerimeter=0;" parent="1" source="febSEECKOxPTXhG7_ZVh-126" target="febSEECKOxPTXhG7_ZVh-128" edge="1">
                    <mxGeometry width="50" height="50" relative="1" as="geometry">
                        <mxPoint x="1347" y="1010" as="sourcePoint"/>
                        <mxPoint x="1397" y="960" as="targetPoint"/>
                    </mxGeometry>
                </mxCell>
                <mxCell id="febSEECKOxPTXhG7_ZVh-159" value="RelayControl" style="rounded=1;whiteSpace=wrap;html=1;absoluteArcSize=1;arcSize=14;strokeWidth=2;fontSize=12;" parent="1" vertex="1">
                    <mxGeometry x="542" y="935" width="100" height="100" as="geometry"/>
                </mxCell>
                <mxCell id="febSEECKOxPTXhG7_ZVh-162" value="EffectCondition" style="rounded=1;whiteSpace=wrap;html=1;absoluteArcSize=1;arcSize=14;strokeWidth=2;fontSize=12;" parent="1" vertex="1">
                    <mxGeometry x="712" y="900" width="100" height="100" as="geometry"/>
                </mxCell>
                <mxCell id="febSEECKOxPTXhG7_ZVh-163" value="RelaySelect" style="rounded=1;whiteSpace=wrap;html=1;absoluteArcSize=1;arcSize=14;strokeWidth=2;fontSize=12;" parent="1" vertex="1">
                    <mxGeometry x="712" y="1200" width="100" height="100" as="geometry"/>
                </mxCell>
                <mxCell id="febSEECKOxPTXhG7_ZVh-164" value="" style="verticalLabelPosition=bottom;verticalAlign=top;html=1;shape=mxgraph.flowchart.on-page_reference;fontSize=12;" parent="1" vertex="1">
                    <mxGeometry x="1582" y="920" width="60" height="60" as="geometry"/>
                </mxCell>
                <mxCell id="febSEECKOxPTXhG7_ZVh-165" value="" style="endArrow=classic;html=1;fontSize=12;exitX=1;exitY=0.5;exitDx=0;exitDy=0;" parent="1" source="febSEECKOxPTXhG7_ZVh-148" target="febSEECKOxPTXhG7_ZVh-164" edge="1">
                    <mxGeometry width="50" height="50" relative="1" as="geometry">
                        <mxPoint x="1302" y="1080" as="sourcePoint"/>
                        <mxPoint x="1352" y="1030" as="targetPoint"/>
                    </mxGeometry>
                </mxCell>
                <mxCell id="febSEECKOxPTXhG7_ZVh-166" value="IO_Control" style="rounded=1;whiteSpace=wrap;html=1;absoluteArcSize=1;arcSize=14;strokeWidth=2;fontSize=12;" parent="1" vertex="1">
                    <mxGeometry x="712" y="1370" width="100" height="100" as="geometry"/>
                </mxCell>
                <mxCell id="febSEECKOxPTXhG7_ZVh-167" value="" style="endArrow=classic;html=1;fontSize=12;exitX=1;exitY=0.25;exitDx=0;exitDy=0;entryX=0;entryY=0.5;entryDx=0;entryDy=0;" parent="1" source="febSEECKOxPTXhG7_ZVh-159" target="febSEECKOxPTXhG7_ZVh-162" edge="1">
                    <mxGeometry width="50" height="50" relative="1" as="geometry">
                        <mxPoint x="1052" y="1140" as="sourcePoint"/>
                        <mxPoint x="1102" y="1090" as="targetPoint"/>
                    </mxGeometry>
                </mxCell>
                <mxCell id="febSEECKOxPTXhG7_ZVh-168" value="" style="endArrow=classic;html=1;fontSize=12;exitX=1;exitY=0.5;exitDx=0;exitDy=0;entryX=0.25;entryY=0;entryDx=0;entryDy=0;" parent="1" source="febSEECKOxPTXhG7_ZVh-159" target="febSEECKOxPTXhG7_ZVh-163" edge="1">
                    <mxGeometry width="50" height="50" relative="1" as="geometry">
                        <mxPoint x="1052" y="1140" as="sourcePoint"/>
                        <mxPoint x="1102" y="1090" as="targetPoint"/>
                    </mxGeometry>
                </mxCell>
                <mxCell id="febSEECKOxPTXhG7_ZVh-170" value="" style="endArrow=classic;html=1;fontSize=12;exitX=1;exitY=0.75;exitDx=0;exitDy=0;entryX=0;entryY=0;entryDx=0;entryDy=0;" parent="1" source="febSEECKOxPTXhG7_ZVh-159" target="febSEECKOxPTXhG7_ZVh-166" edge="1">
                    <mxGeometry width="50" height="50" relative="1" as="geometry">
                        <mxPoint x="1052" y="1140" as="sourcePoint"/>
                        <mxPoint x="1102" y="1090" as="targetPoint"/>
                    </mxGeometry>
                </mxCell>
                <mxCell id="febSEECKOxPTXhG7_ZVh-171" value="" style="endArrow=classic;html=1;fontSize=12;exitX=1;exitY=0.5;exitDx=0;exitDy=0;entryX=0;entryY=0.75;entryDx=0;entryDy=0;dashed=1;" parent="1" source="febSEECKOxPTXhG7_ZVh-163" target="febSEECKOxPTXhG7_ZVh-148" edge="1">
                    <mxGeometry width="50" height="50" relative="1" as="geometry">
                        <mxPoint x="1052" y="1140" as="sourcePoint"/>
                        <mxPoint x="1332" y="1200" as="targetPoint"/>
                        <Array as="points">
                            <mxPoint x="1222" y="1250"/>
                        </Array>
                    </mxGeometry>
                </mxCell>
                <mxCell id="febSEECKOxPTXhG7_ZVh-172" value="" style="endArrow=classic;html=1;dashed=1;fontSize=12;exitX=1;exitY=0.5;exitDx=0;exitDy=0;entryX=0.25;entryY=1;entryDx=0;entryDy=0;" parent="1" source="febSEECKOxPTXhG7_ZVh-166" target="febSEECKOxPTXhG7_ZVh-126" edge="1">
                    <mxGeometry width="50" height="50" relative="1" as="geometry">
                        <mxPoint x="1052" y="1140" as="sourcePoint"/>
                        <mxPoint x="1102" y="1090" as="targetPoint"/>
                        <Array as="points">
                            <mxPoint x="1232" y="1300"/>
                        </Array>
                    </mxGeometry>
                </mxCell>
                <mxCell id="febSEECKOxPTXhG7_ZVh-173" value="" style="endArrow=classic;html=1;fontSize=12;exitX=1;exitY=0.25;exitDx=0;exitDy=0;entryX=0;entryY=0.5;entryDx=0;entryDy=0;" parent="1" source="febSEECKOxPTXhG7_ZVh-162" target="febSEECKOxPTXhG7_ZVh-135" edge="1">
                    <mxGeometry width="50" height="50" relative="1" as="geometry">
                        <mxPoint x="1052" y="1140" as="sourcePoint"/>
                        <mxPoint x="1102" y="1090" as="targetPoint"/>
                    </mxGeometry>
                </mxCell>
                <mxCell id="febSEECKOxPTXhG7_ZVh-174" value="" style="endArrow=classic;html=1;fontSize=12;exitX=1.01;exitY=0.38;exitDx=0;exitDy=0;exitPerimeter=0;entryX=0;entryY=0.5;entryDx=0;entryDy=0;" parent="1" source="febSEECKOxPTXhG7_ZVh-162" target="febSEECKOxPTXhG7_ZVh-134" edge="1">
                    <mxGeometry width="50" height="50" relative="1" as="geometry">
                        <mxPoint x="1052" y="1140" as="sourcePoint"/>
                        <mxPoint x="1102" y="1090" as="targetPoint"/>
                    </mxGeometry>
                </mxCell>
                <mxCell id="febSEECKOxPTXhG7_ZVh-175" value="" style="endArrow=classic;html=1;fontSize=12;exitX=1;exitY=0.5;exitDx=0;exitDy=0;entryX=0;entryY=0.5;entryDx=0;entryDy=0;" parent="1" source="febSEECKOxPTXhG7_ZVh-162" target="febSEECKOxPTXhG7_ZVh-133" edge="1">
                    <mxGeometry width="50" height="50" relative="1" as="geometry">
                        <mxPoint x="1052" y="1140" as="sourcePoint"/>
                        <mxPoint x="1102" y="1090" as="targetPoint"/>
                    </mxGeometry>
                </mxCell>
                <mxCell id="febSEECKOxPTXhG7_ZVh-176" value="" style="endArrow=classic;html=1;fontSize=12;exitX=1;exitY=0.75;exitDx=0;exitDy=0;entryX=0;entryY=0.5;entryDx=0;entryDy=0;" parent="1" source="febSEECKOxPTXhG7_ZVh-162" target="febSEECKOxPTXhG7_ZVh-132" edge="1">
                    <mxGeometry width="50" height="50" relative="1" as="geometry">
                        <mxPoint x="1052" y="1140" as="sourcePoint"/>
                        <mxPoint x="1102" y="1090" as="targetPoint"/>
                    </mxGeometry>
                </mxCell>
                <mxCell id="febSEECKOxPTXhG7_ZVh-177" value="" style="endArrow=classic;html=1;fontSize=12;exitX=1;exitY=1;exitDx=0;exitDy=0;entryX=0;entryY=0.5;entryDx=0;entryDy=0;" parent="1" source="febSEECKOxPTXhG7_ZVh-162" target="febSEECKOxPTXhG7_ZVh-131" edge="1">
                    <mxGeometry width="50" height="50" relative="1" as="geometry">
                        <mxPoint x="1052" y="1140" as="sourcePoint"/>
                        <mxPoint x="1102" y="1090" as="targetPoint"/>
                    </mxGeometry>
                </mxCell>
                <mxCell id="febSEECKOxPTXhG7_ZVh-178" value="&lt;div style=&quot;text-align: left&quot;&gt;&lt;span&gt;缺点：&lt;/span&gt;&lt;/div&gt;&lt;div style=&quot;text-align: left&quot;&gt;&lt;span&gt;1、很多小的函数，main函数的调用很多，影响效率；&lt;/span&gt;&lt;/div&gt;&lt;div style=&quot;text-align: left&quot;&gt;&lt;span&gt;2、浪费一部分空间；&lt;/span&gt;&lt;/div&gt;&lt;div style=&quot;text-align: left&quot;&gt;&lt;span&gt;3、占用堆栈比较多；&lt;/span&gt;&lt;/div&gt;&lt;div style=&quot;text-align: left&quot;&gt;&lt;span&gt;4、引入的 Flag 也会比较多；&lt;/span&gt;&lt;/div&gt;" style="text;html=1;strokeColor=none;fillColor=none;align=center;verticalAlign=middle;whiteSpace=wrap;rounded=0;fontSize=20;" parent="1" vertex="1">
                    <mxGeometry x="1224" y="1310" width="358" height="160" as="geometry"/>
                </mxCell>
                <mxCell id="febSEECKOxPTXhG7_ZVh-180" value="RelayPirModeControl" style="text;html=1;strokeColor=none;fillColor=none;align=center;verticalAlign=middle;whiteSpace=wrap;rounded=0;fontSize=20;" parent="1" vertex="1">
                    <mxGeometry x="60" y="1550" width="210" height="30" as="geometry"/>
                </mxCell>
                <mxCell id="febSEECKOxPTXhG7_ZVh-181" value="" style="rounded=1;whiteSpace=wrap;html=1;absoluteArcSize=1;arcSize=14;strokeWidth=2;fontSize=20;" parent="1" vertex="1">
                    <mxGeometry x="105" y="1600" width="145" height="300" as="geometry"/>
                </mxCell>
                <mxCell id="febSEECKOxPTXhG7_ZVh-182" value="PirModeDis" style="verticalLabelPosition=bottom;verticalAlign=top;html=1;shape=mxgraph.flowchart.on-page_reference;fontSize=20;" parent="1" vertex="1">
                    <mxGeometry x="144" y="1610" width="60" height="60" as="geometry"/>
                </mxCell>
                <mxCell id="febSEECKOxPTXhG7_ZVh-183" value="" style="rounded=1;whiteSpace=wrap;html=1;absoluteArcSize=1;arcSize=14;strokeWidth=2;fontSize=20;" parent="1" vertex="1">
                    <mxGeometry x="325.5" y="1700" width="180" height="550" as="geometry"/>
                </mxCell>
                <mxCell id="febSEECKOxPTXhG7_ZVh-184" value="" style="rounded=1;whiteSpace=wrap;html=1;absoluteArcSize=1;arcSize=14;strokeWidth=2;fontSize=20;" parent="1" vertex="1">
                    <mxGeometry x="354" y="1710" width="119" height="360" as="geometry"/>
                </mxCell>
                <mxCell id="febSEECKOxPTXhG7_ZVh-185" value="" style="rounded=1;whiteSpace=wrap;html=1;absoluteArcSize=1;arcSize=14;strokeWidth=2;fontSize=20;" parent="1" vertex="1">
                    <mxGeometry x="132" y="1730" width="100" height="100" as="geometry"/>
                </mxCell>
                <mxCell id="febSEECKOxPTXhG7_ZVh-186" value="MainTimer" style="verticalLabelPosition=bottom;verticalAlign=top;html=1;shape=mxgraph.flowchart.on-page_reference;fontSize=20;" parent="1" vertex="1">
                    <mxGeometry x="374" y="1725" width="76" height="70" as="geometry"/>
                </mxCell>
                <mxCell id="febSEECKOxPTXhG7_ZVh-187" value="Override" style="verticalLabelPosition=bottom;verticalAlign=top;html=1;shape=mxgraph.flowchart.on-page_reference;fontSize=20;" parent="1" vertex="1">
                    <mxGeometry x="379" y="1855" width="66" height="70" as="geometry"/>
                </mxCell>
                <mxCell id="febSEECKOxPTXhG7_ZVh-188" value="idle" style="verticalLabelPosition=bottom;verticalAlign=top;html=1;shape=mxgraph.flowchart.on-page_reference;fontSize=20;" parent="1" vertex="1">
                    <mxGeometry x="375" y="1965" width="70" height="70" as="geometry"/>
                </mxCell>
                <mxCell id="febSEECKOxPTXhG7_ZVh-189" value="" style="rounded=1;whiteSpace=wrap;html=1;absoluteArcSize=1;arcSize=14;strokeWidth=2;fontSize=20;" parent="1" vertex="1">
                    <mxGeometry x="359" y="2100" width="110" height="140" as="geometry"/>
                </mxCell>
                <mxCell id="febSEECKOxPTXhG7_ZVh-190" value="PirModePre" style="verticalLabelPosition=bottom;verticalAlign=top;html=1;shape=mxgraph.flowchart.on-page_reference;fontSize=20;" parent="1" vertex="1">
                    <mxGeometry x="380" y="2110" width="60" height="60" as="geometry"/>
                </mxCell>
                <mxCell id="febSEECKOxPTXhG7_ZVh-191" value="SetTimer" style="verticalLabelPosition=bottom;verticalAlign=top;html=1;shape=mxgraph.flowchart.on-page_reference;fontSize=20;" parent="1" vertex="1">
                    <mxGeometry x="590" y="1730" width="60" height="60" as="geometry"/>
                </mxCell>
                <mxCell id="febSEECKOxPTXhG7_ZVh-192" value="SetTimer" style="verticalLabelPosition=bottom;verticalAlign=top;html=1;shape=mxgraph.flowchart.on-page_reference;fontSize=20;" parent="1" vertex="1">
                    <mxGeometry x="590" y="1850" width="60" height="60" as="geometry"/>
                </mxCell>
                <mxCell id="febSEECKOxPTXhG7_ZVh-193" value="Lux" style="verticalLabelPosition=bottom;verticalAlign=top;html=1;shape=mxgraph.flowchart.on-page_reference;fontSize=20;" parent="1" vertex="1">
                    <mxGeometry x="590" y="2110" width="60" height="60" as="geometry"/>
                </mxCell>
                <mxCell id="febSEECKOxPTXhG7_ZVh-194" value="" style="rounded=1;whiteSpace=wrap;html=1;absoluteArcSize=1;arcSize=14;strokeWidth=2;fontSize=20;" parent="1" vertex="1">
                    <mxGeometry x="394" y="1740" width="40" height="40" as="geometry"/>
                </mxCell>
                <mxCell id="febSEECKOxPTXhG7_ZVh-195" value="" style="rounded=1;whiteSpace=wrap;html=1;absoluteArcSize=1;arcSize=14;strokeWidth=2;fontSize=20;" parent="1" vertex="1">
                    <mxGeometry x="394" y="1870" width="40" height="40" as="geometry"/>
                </mxCell>
                <mxCell id="febSEECKOxPTXhG7_ZVh-198" value="" style="endArrow=classic;html=1;fontSize=20;exitX=1;exitY=0.25;exitDx=0;exitDy=0;entryX=0.008;entryY=0.065;entryDx=0;entryDy=0;entryPerimeter=0;" parent="1" source="febSEECKOxPTXhG7_ZVh-185" target="febSEECKOxPTXhG7_ZVh-183" edge="1">
                    <mxGeometry width="50" height="50" relative="1" as="geometry">
                        <mxPoint x="600" y="1910" as="sourcePoint"/>
                        <mxPoint x="650" y="1860" as="targetPoint"/>
                    </mxGeometry>
                </mxCell>
                <mxCell id="febSEECKOxPTXhG7_ZVh-199" value="" style="endArrow=classic;html=1;fontSize=20;exitX=1;exitY=0.5;exitDx=0;exitDy=0;entryX=0;entryY=0.5;entryDx=0;entryDy=0;entryPerimeter=0;" parent="1" source="febSEECKOxPTXhG7_ZVh-194" target="febSEECKOxPTXhG7_ZVh-191" edge="1">
                    <mxGeometry width="50" height="50" relative="1" as="geometry">
                        <mxPoint x="600" y="1910" as="sourcePoint"/>
                        <mxPoint x="650" y="1860" as="targetPoint"/>
                    </mxGeometry>
                </mxCell>
                <mxCell id="febSEECKOxPTXhG7_ZVh-200" value="" style="endArrow=classic;html=1;fontSize=20;exitX=1;exitY=0.5;exitDx=0;exitDy=0;entryX=0;entryY=0.5;entryDx=0;entryDy=0;entryPerimeter=0;" parent="1" source="febSEECKOxPTXhG7_ZVh-195" target="febSEECKOxPTXhG7_ZVh-192" edge="1">
                    <mxGeometry width="50" height="50" relative="1" as="geometry">
                        <mxPoint x="600" y="1910" as="sourcePoint"/>
                        <mxPoint x="650" y="1860" as="targetPoint"/>
                    </mxGeometry>
                </mxCell>
                <mxCell id="febSEECKOxPTXhG7_ZVh-201" value="" style="endArrow=classic;html=1;fontSize=20;exitX=1;exitY=0.5;exitDx=0;exitDy=0;exitPerimeter=0;entryX=0;entryY=0.5;entryDx=0;entryDy=0;entryPerimeter=0;" parent="1" source="febSEECKOxPTXhG7_ZVh-190" target="febSEECKOxPTXhG7_ZVh-193" edge="1">
                    <mxGeometry width="50" height="50" relative="1" as="geometry">
                        <mxPoint x="600" y="1910" as="sourcePoint"/>
                        <mxPoint x="650" y="1860" as="targetPoint"/>
                    </mxGeometry>
                </mxCell>
                <mxCell id="febSEECKOxPTXhG7_ZVh-202" value="&lt;h1&gt;没有业务逻辑&lt;/h1&gt;&lt;p&gt;隐形的业务逻辑；以代码调用方便为主，直接调用；没有考虑单元测试和可扩展的问题&lt;/p&gt;" style="text;html=1;strokeColor=none;fillColor=none;spacing=5;spacingTop=-20;whiteSpace=wrap;overflow=hidden;rounded=0;fontSize=20;" parent="1" vertex="1">
                    <mxGeometry x="30" y="2010" width="270" height="210" as="geometry"/>
                </mxCell>
                <mxCell id="febSEECKOxPTXhG7_ZVh-203" value="" style="shape=flexArrow;endArrow=classic;html=1;fontSize=20;endWidth=46;endSize=15;width=32;" parent="1" edge="1">
                    <mxGeometry width="50" height="50" relative="1" as="geometry">
                        <mxPoint x="690" y="1960" as="sourcePoint"/>
                        <mxPoint x="800" y="1960" as="targetPoint"/>
                    </mxGeometry>
                </mxCell>
                <mxCell id="febSEECKOxPTXhG7_ZVh-204" value="PirMode" style="rounded=1;whiteSpace=wrap;html=1;absoluteArcSize=1;arcSize=14;strokeWidth=2;fontSize=20;" parent="1" vertex="1">
                    <mxGeometry x="867" y="1780" width="103" height="220" as="geometry"/>
                </mxCell>
                <mxCell id="febSEECKOxPTXhG7_ZVh-205" value="RelayPIRModeTrunk" style="text;html=1;strokeColor=none;fillColor=none;align=center;verticalAlign=middle;whiteSpace=wrap;rounded=0;fontSize=20;" parent="1" vertex="1">
                    <mxGeometry x="787" y="1725" width="253" height="30" as="geometry"/>
                </mxCell>
                <mxCell id="febSEECKOxPTXhG7_ZVh-206" value="Dis" style="rounded=1;whiteSpace=wrap;html=1;absoluteArcSize=1;arcSize=14;strokeWidth=2;fontSize=20;" parent="1" vertex="1">
                    <mxGeometry x="1070" y="1780" width="110" height="60" as="geometry"/>
                </mxCell>
                <mxCell id="febSEECKOxPTXhG7_ZVh-207" value="Presence" style="rounded=1;whiteSpace=wrap;html=1;absoluteArcSize=1;arcSize=14;strokeWidth=2;fontSize=20;" parent="1" vertex="1">
                    <mxGeometry x="1070" y="1950" width="110" height="60" as="geometry"/>
                </mxCell>
                <mxCell id="febSEECKOxPTXhG7_ZVh-208" value="Absence" style="rounded=1;whiteSpace=wrap;html=1;absoluteArcSize=1;arcSize=14;strokeWidth=2;fontSize=20;" parent="1" vertex="1">
                    <mxGeometry x="1070" y="2130" width="110" height="60" as="geometry"/>
                </mxCell>
                <mxCell id="febSEECKOxPTXhG7_ZVh-209" value="" style="verticalLabelPosition=bottom;verticalAlign=top;html=1;shape=mxgraph.flowchart.on-page_reference;fontSize=20;" parent="1" vertex="1">
                    <mxGeometry x="1274" y="1780" width="60" height="60" as="geometry"/>
                </mxCell>
                <mxCell id="febSEECKOxPTXhG7_ZVh-210" value="MainTm" style="rounded=1;whiteSpace=wrap;html=1;absoluteArcSize=1;arcSize=14;strokeWidth=2;fontSize=20;" parent="1" vertex="1">
                    <mxGeometry x="1280" y="1890" width="90" height="40" as="geometry"/>
                </mxCell>
                <mxCell id="febSEECKOxPTXhG7_ZVh-211" value="Override" style="rounded=1;whiteSpace=wrap;html=1;absoluteArcSize=1;arcSize=14;strokeWidth=2;fontSize=20;" parent="1" vertex="1">
                    <mxGeometry x="1280" y="1970" width="90" height="40" as="geometry"/>
                </mxCell>
                <mxCell id="febSEECKOxPTXhG7_ZVh-212" value="Idle" style="rounded=1;whiteSpace=wrap;html=1;absoluteArcSize=1;arcSize=14;strokeWidth=2;fontSize=20;" parent="1" vertex="1">
                    <mxGeometry x="1280" y="2050" width="90" height="40" as="geometry"/>
                </mxCell>
                <mxCell id="febSEECKOxPTXhG7_ZVh-213" value="MainTm" style="rounded=1;whiteSpace=wrap;html=1;absoluteArcSize=1;arcSize=14;strokeWidth=2;fontSize=20;" parent="1" vertex="1">
                    <mxGeometry x="1280" y="2250" width="90" height="40" as="geometry"/>
                </mxCell>
                <mxCell id="febSEECKOxPTXhG7_ZVh-214" value="Override" style="rounded=1;whiteSpace=wrap;html=1;absoluteArcSize=1;arcSize=14;strokeWidth=2;fontSize=20;" parent="1" vertex="1">
                    <mxGeometry x="1280" y="2330" width="90" height="40" as="geometry"/>
                </mxCell>
                <mxCell id="febSEECKOxPTXhG7_ZVh-215" value="Idle" style="rounded=1;whiteSpace=wrap;html=1;absoluteArcSize=1;arcSize=14;strokeWidth=2;fontSize=20;" parent="1" vertex="1">
                    <mxGeometry x="1280" y="2410" width="90" height="40" as="geometry"/>
                </mxCell>
                <mxCell id="febSEECKOxPTXhG7_ZVh-216" value="&lt;br style=&quot;font-size: 20px;&quot;&gt;" style="verticalLabelPosition=bottom;verticalAlign=top;html=1;shape=mxgraph.flowchart.on-page_reference;fontSize=20;" parent="1" vertex="1">
                    <mxGeometry x="1577" y="1885" width="40" height="40" as="geometry"/>
                </mxCell>
                <mxCell id="febSEECKOxPTXhG7_ZVh-217" value="" style="verticalLabelPosition=bottom;verticalAlign=top;html=1;shape=mxgraph.flowchart.on-page_reference;fontSize=20;" parent="1" vertex="1">
                    <mxGeometry x="1577" y="1820" width="40" height="40" as="geometry"/>
                </mxCell>
                <mxCell id="febSEECKOxPTXhG7_ZVh-218" value="" style="verticalLabelPosition=bottom;verticalAlign=top;html=1;shape=mxgraph.flowchart.on-page_reference;fontSize=20;" parent="1" vertex="1">
                    <mxGeometry x="1577" y="1940" width="40" height="40" as="geometry"/>
                </mxCell>
                <mxCell id="febSEECKOxPTXhG7_ZVh-219" value="" style="verticalLabelPosition=bottom;verticalAlign=top;html=1;shape=mxgraph.flowchart.on-page_reference;fontSize=20;" parent="1" vertex="1">
                    <mxGeometry x="1577" y="1995" width="40" height="40" as="geometry"/>
                </mxCell>
                <mxCell id="febSEECKOxPTXhG7_ZVh-220" value="" style="verticalLabelPosition=bottom;verticalAlign=top;html=1;shape=mxgraph.flowchart.on-page_reference;fontSize=20;" parent="1" vertex="1">
                    <mxGeometry x="1577" y="2060" width="40" height="40" as="geometry"/>
                </mxCell>
                <mxCell id="febSEECKOxPTXhG7_ZVh-221" value="" style="verticalLabelPosition=bottom;verticalAlign=top;html=1;shape=mxgraph.flowchart.on-page_reference;fontSize=20;" parent="1" vertex="1">
                    <mxGeometry x="1577" y="2120" width="40" height="40" as="geometry"/>
                </mxCell>
                <mxCell id="febSEECKOxPTXhG7_ZVh-222" value="业务逻辑" style="text;html=1;strokeColor=none;fillColor=none;align=center;verticalAlign=middle;whiteSpace=wrap;rounded=0;fontSize=20;" parent="1" vertex="1">
                    <mxGeometry x="840" y="1690" width="130" height="30" as="geometry"/>
                </mxCell>
                <mxCell id="febSEECKOxPTXhG7_ZVh-224" value="Pir" style="rounded=1;whiteSpace=wrap;html=1;absoluteArcSize=1;arcSize=14;strokeWidth=2;fontSize=20;" parent="1" vertex="1">
                    <mxGeometry x="1420" y="1820" width="90" height="40" as="geometry"/>
                </mxCell>
                <mxCell id="febSEECKOxPTXhG7_ZVh-225" value="MTCount" style="rounded=1;whiteSpace=wrap;html=1;absoluteArcSize=1;arcSize=14;strokeWidth=2;fontSize=20;" parent="1" vertex="1">
                    <mxGeometry x="1420" y="1880" width="90" height="40" as="geometry"/>
                </mxCell>
                <mxCell id="febSEECKOxPTXhG7_ZVh-226" value="Pir" style="rounded=1;whiteSpace=wrap;html=1;absoluteArcSize=1;arcSize=14;strokeWidth=2;fontSize=20;" parent="1" vertex="1">
                    <mxGeometry x="1420" y="1940" width="90" height="40" as="geometry"/>
                </mxCell>
                <mxCell id="febSEECKOxPTXhG7_ZVh-227" value="OVCount" style="rounded=1;whiteSpace=wrap;html=1;absoluteArcSize=1;arcSize=14;strokeWidth=2;fontSize=20;" parent="1" vertex="1">
                    <mxGeometry x="1420" y="2000" width="90" height="40" as="geometry"/>
                </mxCell>
                <mxCell id="febSEECKOxPTXhG7_ZVh-228" value="Pir" style="rounded=1;whiteSpace=wrap;html=1;absoluteArcSize=1;arcSize=14;strokeWidth=2;fontSize=20;" parent="1" vertex="1">
                    <mxGeometry x="1420" y="2060" width="90" height="40" as="geometry"/>
                </mxCell>
                <mxCell id="febSEECKOxPTXhG7_ZVh-229" value="Lux" style="rounded=1;whiteSpace=wrap;html=1;absoluteArcSize=1;arcSize=14;strokeWidth=2;fontSize=20;" parent="1" vertex="1">
                    <mxGeometry x="1420" y="2120" width="90" height="40" as="geometry"/>
                </mxCell>
                <mxCell id="febSEECKOxPTXhG7_ZVh-230" value="Pir" style="rounded=1;whiteSpace=wrap;html=1;absoluteArcSize=1;arcSize=14;strokeWidth=2;fontSize=20;" parent="1" vertex="1">
                    <mxGeometry x="1420" y="2190" width="90" height="40" as="geometry"/>
                </mxCell>
                <mxCell id="febSEECKOxPTXhG7_ZVh-231" value="MTCount" style="rounded=1;whiteSpace=wrap;html=1;absoluteArcSize=1;arcSize=14;strokeWidth=2;fontSize=20;" parent="1" vertex="1">
                    <mxGeometry x="1420" y="2250" width="90" height="40" as="geometry"/>
                </mxCell>
                <mxCell id="febSEECKOxPTXhG7_ZVh-232" value="Pir" style="rounded=1;whiteSpace=wrap;html=1;absoluteArcSize=1;arcSize=14;strokeWidth=2;fontSize=20;" parent="1" vertex="1">
                    <mxGeometry x="1420" y="2310" width="90" height="40" as="geometry"/>
                </mxCell>
                <mxCell id="febSEECKOxPTXhG7_ZVh-233" value="OVCount" style="rounded=1;whiteSpace=wrap;html=1;absoluteArcSize=1;arcSize=14;strokeWidth=2;fontSize=20;" parent="1" vertex="1">
                    <mxGeometry x="1420" y="2370" width="90" height="40" as="geometry"/>
                </mxCell>
                <mxCell id="febSEECKOxPTXhG7_ZVh-236" value="" style="verticalLabelPosition=bottom;verticalAlign=top;html=1;shape=mxgraph.flowchart.on-page_reference;fontSize=20;" parent="1" vertex="1">
                    <mxGeometry x="1435" y="2430" width="60" height="60" as="geometry"/>
                </mxCell>
                <mxCell id="febSEECKOxPTXhG7_ZVh-237" value="Precense/Ab" style="rounded=1;whiteSpace=wrap;html=1;absoluteArcSize=1;arcSize=14;strokeWidth=2;fontSize=20;" parent="1" vertex="1">
                    <mxGeometry x="795" y="2720" width="145" height="50" as="geometry"/>
                </mxCell>
                <mxCell id="febSEECKOxPTXhG7_ZVh-238" value="EffectCondition" style="rounded=1;whiteSpace=wrap;html=1;absoluteArcSize=1;arcSize=14;strokeWidth=2;fontSize=12;" parent="1" vertex="1">
                    <mxGeometry x="990" y="2641.25" width="105" height="60" as="geometry"/>
                </mxCell>
                <mxCell id="febSEECKOxPTXhG7_ZVh-239" value="TE_Switch" style="rounded=1;whiteSpace=wrap;html=1;absoluteArcSize=1;arcSize=14;strokeWidth=2;fontSize=12;" parent="1" vertex="1">
                    <mxGeometry x="887" y="750" width="80" height="40" as="geometry"/>
                </mxCell>
                <mxCell id="febSEECKOxPTXhG7_ZVh-240" value="IR_CMD" style="rounded=1;whiteSpace=wrap;html=1;absoluteArcSize=1;arcSize=14;strokeWidth=2;fontSize=12;" parent="1" vertex="1">
                    <mxGeometry x="887" y="840" width="80" height="40" as="geometry"/>
                </mxCell>
                <mxCell id="febSEECKOxPTXhG7_ZVh-241" value="TE_Switch" style="rounded=1;whiteSpace=wrap;html=1;absoluteArcSize=1;arcSize=14;strokeWidth=2;fontSize=12;" parent="1" vertex="1">
                    <mxGeometry x="887" y="750" width="80" height="40" as="geometry"/>
                </mxCell>
                <mxCell id="febSEECKOxPTXhG7_ZVh-242" value="IR_CMD" style="rounded=1;whiteSpace=wrap;html=1;absoluteArcSize=1;arcSize=14;strokeWidth=2;fontSize=12;" parent="1" vertex="1">
                    <mxGeometry x="887" y="840" width="80" height="40" as="geometry"/>
                </mxCell>
                <mxCell id="febSEECKOxPTXhG7_ZVh-243" value="Auto_PIR" style="rounded=1;whiteSpace=wrap;html=1;absoluteArcSize=1;arcSize=14;strokeWidth=2;fontSize=12;" parent="1" vertex="1">
                    <mxGeometry x="1156" y="2680" width="80" height="40" as="geometry"/>
                </mxCell>
                <mxCell id="febSEECKOxPTXhG7_ZVh-244" value="TE_Switch" style="rounded=1;whiteSpace=wrap;html=1;absoluteArcSize=1;arcSize=14;strokeWidth=2;fontSize=12;" parent="1" vertex="1">
                    <mxGeometry x="1156" y="2562.5" width="80" height="40" as="geometry"/>
                </mxCell>
                <mxCell id="febSEECKOxPTXhG7_ZVh-245" value="IR_CMD" style="rounded=1;whiteSpace=wrap;html=1;absoluteArcSize=1;arcSize=14;strokeWidth=2;fontSize=12;" parent="1" vertex="1">
                    <mxGeometry x="1156" y="2620" width="80" height="40" as="geometry"/>
                </mxCell>
                <mxCell id="febSEECKOxPTXhG7_ZVh-246" value="" style="strokeWidth=2;html=1;shape=mxgraph.flowchart.database;whiteSpace=wrap;fontSize=20;" parent="1" vertex="1">
                    <mxGeometry x="1425" y="2650" width="60" height="60" as="geometry"/>
                </mxCell>
                <mxCell id="febSEECKOxPTXhG7_ZVh-247" value="Count_END" style="rounded=1;whiteSpace=wrap;html=1;absoluteArcSize=1;arcSize=14;strokeWidth=2;fontSize=12;" parent="1" vertex="1">
                    <mxGeometry x="1156" y="2740" width="80" height="40" as="geometry"/>
                </mxCell>
                <mxCell id="febSEECKOxPTXhG7_ZVh-251" value="" style="verticalLabelPosition=bottom;verticalAlign=top;html=1;shape=mxgraph.flowchart.on-page_reference;fontSize=20;" parent="1" vertex="1">
                    <mxGeometry x="1310" y="2540" width="50" height="50" as="geometry"/>
                </mxCell>
                <mxCell id="febSEECKOxPTXhG7_ZVh-252" value="" style="verticalLabelPosition=bottom;verticalAlign=top;html=1;shape=mxgraph.flowchart.on-page_reference;fontSize=20;" parent="1" vertex="1">
                    <mxGeometry x="1310" y="2610" width="50" height="50" as="geometry"/>
                </mxCell>
                <mxCell id="febSEECKOxPTXhG7_ZVh-253" value="" style="verticalLabelPosition=bottom;verticalAlign=top;html=1;shape=mxgraph.flowchart.on-page_reference;fontSize=20;" parent="1" vertex="1">
                    <mxGeometry x="1310" y="2680" width="50" height="50" as="geometry"/>
                </mxCell>
                <mxCell id="febSEECKOxPTXhG7_ZVh-254" value="" style="verticalLabelPosition=bottom;verticalAlign=top;html=1;shape=mxgraph.flowchart.on-page_reference;fontSize=20;" parent="1" vertex="1">
                    <mxGeometry x="1310" y="2740" width="50" height="50" as="geometry"/>
                </mxCell>
                <mxCell id="febSEECKOxPTXhG7_ZVh-255" value="Flag&lt;br&gt;MT/Ov/Idle" style="rounded=1;whiteSpace=wrap;html=1;absoluteArcSize=1;arcSize=14;strokeWidth=2;fontSize=20;" parent="1" vertex="1">
                    <mxGeometry x="1542" y="2640" width="103" height="70" as="geometry"/>
                </mxCell>
                <mxCell id="febSEECKOxPTXhG7_ZVh-256" value="Pre/AbSelect" style="rounded=1;whiteSpace=wrap;html=1;absoluteArcSize=1;arcSize=14;strokeWidth=2;fontSize=20;" parent="1" vertex="1">
                    <mxGeometry x="990" y="2894" width="130" height="56" as="geometry"/>
                </mxCell>
                <mxCell id="febSEECKOxPTXhG7_ZVh-257" value="" style="endArrow=classic;html=1;fontSize=20;exitX=1;exitY=0.25;exitDx=0;exitDy=0;" parent="1" source="febSEECKOxPTXhG7_ZVh-204" edge="1">
                    <mxGeometry width="50" height="50" relative="1" as="geometry">
                        <mxPoint x="1190" y="1820" as="sourcePoint"/>
                        <mxPoint x="1070" y="1810" as="targetPoint"/>
                    </mxGeometry>
                </mxCell>
                <mxCell id="febSEECKOxPTXhG7_ZVh-258" value="" style="endArrow=classic;html=1;fontSize=20;exitX=1;exitY=0.5;exitDx=0;exitDy=0;entryX=0;entryY=0.5;entryDx=0;entryDy=0;" parent="1" source="febSEECKOxPTXhG7_ZVh-204" target="febSEECKOxPTXhG7_ZVh-207" edge="1">
                    <mxGeometry width="50" height="50" relative="1" as="geometry">
                        <mxPoint x="1190" y="1820" as="sourcePoint"/>
                        <mxPoint x="1240" y="1770" as="targetPoint"/>
                    </mxGeometry>
                </mxCell>
                <mxCell id="febSEECKOxPTXhG7_ZVh-259" value="" style="endArrow=classic;html=1;fontSize=20;exitX=1;exitY=0.75;exitDx=0;exitDy=0;entryX=0;entryY=0.5;entryDx=0;entryDy=0;" parent="1" source="febSEECKOxPTXhG7_ZVh-204" target="febSEECKOxPTXhG7_ZVh-208" edge="1">
                    <mxGeometry width="50" height="50" relative="1" as="geometry">
                        <mxPoint x="1190" y="2060" as="sourcePoint"/>
                        <mxPoint x="1240" y="2010" as="targetPoint"/>
                    </mxGeometry>
                </mxCell>
                <mxCell id="febSEECKOxPTXhG7_ZVh-260" value="" style="endArrow=classic;html=1;fontSize=20;exitX=1;exitY=0.5;exitDx=0;exitDy=0;entryX=0;entryY=0.5;entryDx=0;entryDy=0;entryPerimeter=0;" parent="1" source="febSEECKOxPTXhG7_ZVh-206" target="febSEECKOxPTXhG7_ZVh-209" edge="1">
                    <mxGeometry width="50" height="50" relative="1" as="geometry">
                        <mxPoint x="1190" y="2060" as="sourcePoint"/>
                        <mxPoint x="1240" y="2010" as="targetPoint"/>
                    </mxGeometry>
                </mxCell>
                <mxCell id="febSEECKOxPTXhG7_ZVh-261" value="" style="endArrow=classic;html=1;fontSize=20;exitX=1;exitY=0.25;exitDx=0;exitDy=0;entryX=0;entryY=0.5;entryDx=0;entryDy=0;" parent="1" source="febSEECKOxPTXhG7_ZVh-207" target="febSEECKOxPTXhG7_ZVh-210" edge="1">
                    <mxGeometry width="50" height="50" relative="1" as="geometry">
                        <mxPoint x="1190" y="2060" as="sourcePoint"/>
                        <mxPoint x="1240" y="2010" as="targetPoint"/>
                    </mxGeometry>
                </mxCell>
                <mxCell id="febSEECKOxPTXhG7_ZVh-262" value="" style="endArrow=classic;html=1;fontSize=20;exitX=1;exitY=0.5;exitDx=0;exitDy=0;entryX=0;entryY=0.5;entryDx=0;entryDy=0;" parent="1" source="febSEECKOxPTXhG7_ZVh-207" target="febSEECKOxPTXhG7_ZVh-211" edge="1">
                    <mxGeometry width="50" height="50" relative="1" as="geometry">
                        <mxPoint x="1190" y="2060" as="sourcePoint"/>
                        <mxPoint x="1240" y="2010" as="targetPoint"/>
                    </mxGeometry>
                </mxCell>
                <mxCell id="febSEECKOxPTXhG7_ZVh-263" value="" style="endArrow=classic;html=1;fontSize=20;exitX=1;exitY=0.75;exitDx=0;exitDy=0;entryX=0;entryY=0.5;entryDx=0;entryDy=0;" parent="1" source="febSEECKOxPTXhG7_ZVh-207" target="febSEECKOxPTXhG7_ZVh-212" edge="1">
                    <mxGeometry width="50" height="50" relative="1" as="geometry">
                        <mxPoint x="1190" y="2060" as="sourcePoint"/>
                        <mxPoint x="1240" y="2010" as="targetPoint"/>
                    </mxGeometry>
                </mxCell>
                <mxCell id="febSEECKOxPTXhG7_ZVh-264" value="" style="endArrow=classic;html=1;fontSize=20;exitX=1;exitY=0.25;exitDx=0;exitDy=0;entryX=0;entryY=0.5;entryDx=0;entryDy=0;" parent="1" source="febSEECKOxPTXhG7_ZVh-208" target="febSEECKOxPTXhG7_ZVh-213" edge="1">
                    <mxGeometry width="50" height="50" relative="1" as="geometry">
                        <mxPoint x="1190" y="2060" as="sourcePoint"/>
                        <mxPoint x="1240" y="2010" as="targetPoint"/>
                    </mxGeometry>
                </mxCell>
                <mxCell id="febSEECKOxPTXhG7_ZVh-265" value="" style="endArrow=classic;html=1;fontSize=20;exitX=1;exitY=0.5;exitDx=0;exitDy=0;entryX=0;entryY=0.5;entryDx=0;entryDy=0;" parent="1" source="febSEECKOxPTXhG7_ZVh-208" target="febSEECKOxPTXhG7_ZVh-214" edge="1">
                    <mxGeometry width="50" height="50" relative="1" as="geometry">
                        <mxPoint x="1190" y="2060" as="sourcePoint"/>
                        <mxPoint x="1240" y="2010" as="targetPoint"/>
                    </mxGeometry>
                </mxCell>
                <mxCell id="febSEECKOxPTXhG7_ZVh-266" value="" style="endArrow=classic;html=1;fontSize=20;exitX=1;exitY=0.75;exitDx=0;exitDy=0;entryX=0;entryY=0.5;entryDx=0;entryDy=0;" parent="1" source="febSEECKOxPTXhG7_ZVh-208" target="febSEECKOxPTXhG7_ZVh-215" edge="1">
                    <mxGeometry width="50" height="50" relative="1" as="geometry">
                        <mxPoint x="1190" y="2060" as="sourcePoint"/>
                        <mxPoint x="1240" y="2010" as="targetPoint"/>
                    </mxGeometry>
                </mxCell>
                <mxCell id="febSEECKOxPTXhG7_ZVh-267" value="" style="endArrow=classic;html=1;fontSize=20;exitX=1;exitY=0.25;exitDx=0;exitDy=0;entryX=0;entryY=0.5;entryDx=0;entryDy=0;" parent="1" source="febSEECKOxPTXhG7_ZVh-210" target="febSEECKOxPTXhG7_ZVh-224" edge="1">
                    <mxGeometry width="50" height="50" relative="1" as="geometry">
                        <mxPoint x="1510" y="2090" as="sourcePoint"/>
                        <mxPoint x="1560" y="2040" as="targetPoint"/>
                    </mxGeometry>
                </mxCell>
                <mxCell id="febSEECKOxPTXhG7_ZVh-268" value="" style="endArrow=classic;html=1;fontSize=20;exitX=1;exitY=0.5;exitDx=0;exitDy=0;entryX=0;entryY=0.5;entryDx=0;entryDy=0;" parent="1" source="febSEECKOxPTXhG7_ZVh-210" target="febSEECKOxPTXhG7_ZVh-225" edge="1">
                    <mxGeometry width="50" height="50" relative="1" as="geometry">
                        <mxPoint x="1510" y="2090" as="sourcePoint"/>
                        <mxPoint x="1560" y="2040" as="targetPoint"/>
                    </mxGeometry>
                </mxCell>
                <mxCell id="febSEECKOxPTXhG7_ZVh-269" value="" style="endArrow=classic;html=1;fontSize=20;exitX=1;exitY=0.25;exitDx=0;exitDy=0;entryX=0;entryY=0.5;entryDx=0;entryDy=0;" parent="1" source="febSEECKOxPTXhG7_ZVh-211" target="febSEECKOxPTXhG7_ZVh-226" edge="1">
                    <mxGeometry width="50" height="50" relative="1" as="geometry">
                        <mxPoint x="1510" y="2090" as="sourcePoint"/>
                        <mxPoint x="1560" y="2040" as="targetPoint"/>
                    </mxGeometry>
                </mxCell>
                <mxCell id="febSEECKOxPTXhG7_ZVh-270" value="" style="endArrow=classic;html=1;fontSize=20;exitX=1;exitY=0.5;exitDx=0;exitDy=0;entryX=0;entryY=0.5;entryDx=0;entryDy=0;" parent="1" source="febSEECKOxPTXhG7_ZVh-211" target="febSEECKOxPTXhG7_ZVh-227" edge="1">
                    <mxGeometry width="50" height="50" relative="1" as="geometry">
                        <mxPoint x="1510" y="2090" as="sourcePoint"/>
                        <mxPoint x="1560" y="2040" as="targetPoint"/>
                    </mxGeometry>
                </mxCell>
                <mxCell id="febSEECKOxPTXhG7_ZVh-271" value="" style="endArrow=classic;html=1;fontSize=20;exitX=1;exitY=0.25;exitDx=0;exitDy=0;entryX=0;entryY=0.5;entryDx=0;entryDy=0;" parent="1" source="febSEECKOxPTXhG7_ZVh-212" target="febSEECKOxPTXhG7_ZVh-228" edge="1">
                    <mxGeometry width="50" height="50" relative="1" as="geometry">
                        <mxPoint x="1510" y="2090" as="sourcePoint"/>
                        <mxPoint x="1560" y="2040" as="targetPoint"/>
                    </mxGeometry>
                </mxCell>
                <mxCell id="febSEECKOxPTXhG7_ZVh-272" value="" style="endArrow=classic;html=1;fontSize=20;exitX=1;exitY=0.5;exitDx=0;exitDy=0;entryX=0;entryY=0.5;entryDx=0;entryDy=0;" parent="1" source="febSEECKOxPTXhG7_ZVh-212" target="febSEECKOxPTXhG7_ZVh-229" edge="1">
                    <mxGeometry width="50" height="50" relative="1" as="geometry">
                        <mxPoint x="1510" y="2090" as="sourcePoint"/>
                        <mxPoint x="1560" y="2040" as="targetPoint"/>
                    </mxGeometry>
                </mxCell>
                <mxCell id="febSEECKOxPTXhG7_ZVh-273" value="" style="endArrow=classic;html=1;fontSize=20;exitX=1;exitY=0.25;exitDx=0;exitDy=0;entryX=0;entryY=0.5;entryDx=0;entryDy=0;" parent="1" source="febSEECKOxPTXhG7_ZVh-213" target="febSEECKOxPTXhG7_ZVh-230" edge="1">
                    <mxGeometry width="50" height="50" relative="1" as="geometry">
                        <mxPoint x="1510" y="2330" as="sourcePoint"/>
                        <mxPoint x="1560" y="2280" as="targetPoint"/>
                    </mxGeometry>
                </mxCell>
                <mxCell id="febSEECKOxPTXhG7_ZVh-274" value="" style="endArrow=classic;html=1;fontSize=20;exitX=1;exitY=0.5;exitDx=0;exitDy=0;" parent="1" source="febSEECKOxPTXhG7_ZVh-213" edge="1">
                    <mxGeometry width="50" height="50" relative="1" as="geometry">
                        <mxPoint x="1510" y="2330" as="sourcePoint"/>
                        <mxPoint x="1420" y="2270" as="targetPoint"/>
                    </mxGeometry>
                </mxCell>
                <mxCell id="febSEECKOxPTXhG7_ZVh-275" value="" style="endArrow=classic;html=1;fontSize=20;exitX=1;exitY=0.25;exitDx=0;exitDy=0;entryX=0;entryY=0.5;entryDx=0;entryDy=0;" parent="1" source="febSEECKOxPTXhG7_ZVh-214" target="febSEECKOxPTXhG7_ZVh-232" edge="1">
                    <mxGeometry width="50" height="50" relative="1" as="geometry">
                        <mxPoint x="1510" y="2330" as="sourcePoint"/>
                        <mxPoint x="1560" y="2280" as="targetPoint"/>
                    </mxGeometry>
                </mxCell>
                <mxCell id="febSEECKOxPTXhG7_ZVh-276" value="" style="endArrow=classic;html=1;fontSize=20;exitX=1;exitY=0.5;exitDx=0;exitDy=0;entryX=0;entryY=0.5;entryDx=0;entryDy=0;" parent="1" source="febSEECKOxPTXhG7_ZVh-214" target="febSEECKOxPTXhG7_ZVh-233" edge="1">
                    <mxGeometry width="50" height="50" relative="1" as="geometry">
                        <mxPoint x="1510" y="2330" as="sourcePoint"/>
                        <mxPoint x="1560" y="2280" as="targetPoint"/>
                    </mxGeometry>
                </mxCell>
                <mxCell id="febSEECKOxPTXhG7_ZVh-277" value="" style="endArrow=classic;html=1;fontSize=20;exitX=1;exitY=0.5;exitDx=0;exitDy=0;entryX=0.083;entryY=0.333;entryDx=0;entryDy=0;entryPerimeter=0;" parent="1" source="febSEECKOxPTXhG7_ZVh-215" target="febSEECKOxPTXhG7_ZVh-236" edge="1">
                    <mxGeometry width="50" height="50" relative="1" as="geometry">
                        <mxPoint x="1510" y="2330" as="sourcePoint"/>
                        <mxPoint x="1560" y="2280" as="targetPoint"/>
                    </mxGeometry>
                </mxCell>
                <mxCell id="febSEECKOxPTXhG7_ZVh-278" value="&lt;br style=&quot;font-size: 20px;&quot;&gt;" style="verticalLabelPosition=bottom;verticalAlign=top;html=1;shape=mxgraph.flowchart.on-page_reference;fontSize=20;" parent="1" vertex="1">
                    <mxGeometry x="1573.5" y="2255" width="40" height="40" as="geometry"/>
                </mxCell>
                <mxCell id="febSEECKOxPTXhG7_ZVh-279" value="" style="verticalLabelPosition=bottom;verticalAlign=top;html=1;shape=mxgraph.flowchart.on-page_reference;fontSize=20;" parent="1" vertex="1">
                    <mxGeometry x="1573.5" y="2190" width="40" height="40" as="geometry"/>
                </mxCell>
                <mxCell id="febSEECKOxPTXhG7_ZVh-280" value="" style="verticalLabelPosition=bottom;verticalAlign=top;html=1;shape=mxgraph.flowchart.on-page_reference;fontSize=20;" parent="1" vertex="1">
                    <mxGeometry x="1573.5" y="2310" width="40" height="40" as="geometry"/>
                </mxCell>
                <mxCell id="febSEECKOxPTXhG7_ZVh-281" value="" style="verticalLabelPosition=bottom;verticalAlign=top;html=1;shape=mxgraph.flowchart.on-page_reference;fontSize=20;" parent="1" vertex="1">
                    <mxGeometry x="1573.5" y="2365" width="40" height="40" as="geometry"/>
                </mxCell>
                <mxCell id="febSEECKOxPTXhG7_ZVh-284" value="" style="endArrow=classic;html=1;fontSize=20;exitX=1;exitY=0.5;exitDx=0;exitDy=0;entryX=0;entryY=0.5;entryDx=0;entryDy=0;entryPerimeter=0;" parent="1" source="febSEECKOxPTXhG7_ZVh-224" target="febSEECKOxPTXhG7_ZVh-217" edge="1">
                    <mxGeometry width="50" height="50" relative="1" as="geometry">
                        <mxPoint x="1510" y="2100" as="sourcePoint"/>
                        <mxPoint x="1560" y="2050" as="targetPoint"/>
                    </mxGeometry>
                </mxCell>
                <mxCell id="febSEECKOxPTXhG7_ZVh-285" value="" style="endArrow=classic;html=1;fontSize=20;exitX=1;exitY=0.5;exitDx=0;exitDy=0;entryX=0;entryY=0.5;entryDx=0;entryDy=0;entryPerimeter=0;" parent="1" source="febSEECKOxPTXhG7_ZVh-225" target="febSEECKOxPTXhG7_ZVh-216" edge="1">
                    <mxGeometry width="50" height="50" relative="1" as="geometry">
                        <mxPoint x="1510" y="2100" as="sourcePoint"/>
                        <mxPoint x="1560" y="2050" as="targetPoint"/>
                    </mxGeometry>
                </mxCell>
                <mxCell id="febSEECKOxPTXhG7_ZVh-286" value="" style="endArrow=classic;html=1;fontSize=20;exitX=1;exitY=0.5;exitDx=0;exitDy=0;entryX=0;entryY=0.5;entryDx=0;entryDy=0;entryPerimeter=0;" parent="1" source="febSEECKOxPTXhG7_ZVh-226" target="febSEECKOxPTXhG7_ZVh-218" edge="1">
                    <mxGeometry width="50" height="50" relative="1" as="geometry">
                        <mxPoint x="1510" y="2100" as="sourcePoint"/>
                        <mxPoint x="1560" y="2050" as="targetPoint"/>
                    </mxGeometry>
                </mxCell>
                <mxCell id="febSEECKOxPTXhG7_ZVh-287" value="" style="endArrow=classic;html=1;fontSize=20;exitX=1;exitY=0.5;exitDx=0;exitDy=0;entryX=0;entryY=0.5;entryDx=0;entryDy=0;entryPerimeter=0;" parent="1" source="febSEECKOxPTXhG7_ZVh-227" target="febSEECKOxPTXhG7_ZVh-219" edge="1">
                    <mxGeometry width="50" height="50" relative="1" as="geometry">
                        <mxPoint x="1510" y="2100" as="sourcePoint"/>
                        <mxPoint x="1560" y="2050" as="targetPoint"/>
                    </mxGeometry>
                </mxCell>
                <mxCell id="febSEECKOxPTXhG7_ZVh-288" value="" style="endArrow=classic;html=1;fontSize=20;exitX=1;exitY=0.5;exitDx=0;exitDy=0;entryX=0;entryY=0.5;entryDx=0;entryDy=0;entryPerimeter=0;" parent="1" source="febSEECKOxPTXhG7_ZVh-228" target="febSEECKOxPTXhG7_ZVh-220" edge="1">
                    <mxGeometry width="50" height="50" relative="1" as="geometry">
                        <mxPoint x="1510" y="2100" as="sourcePoint"/>
                        <mxPoint x="1560" y="2050" as="targetPoint"/>
                    </mxGeometry>
                </mxCell>
                <mxCell id="febSEECKOxPTXhG7_ZVh-289" value="" style="endArrow=classic;html=1;fontSize=20;exitX=1;exitY=0.5;exitDx=0;exitDy=0;entryX=0;entryY=0.5;entryDx=0;entryDy=0;entryPerimeter=0;" parent="1" source="febSEECKOxPTXhG7_ZVh-229" target="febSEECKOxPTXhG7_ZVh-221" edge="1">
                    <mxGeometry width="50" height="50" relative="1" as="geometry">
                        <mxPoint x="1510" y="2100" as="sourcePoint"/>
                        <mxPoint x="1560" y="2050" as="targetPoint"/>
                    </mxGeometry>
                </mxCell>
                <mxCell id="febSEECKOxPTXhG7_ZVh-290" value="" style="endArrow=classic;html=1;fontSize=20;exitX=1;exitY=0.5;exitDx=0;exitDy=0;entryX=0;entryY=0.5;entryDx=0;entryDy=0;entryPerimeter=0;" parent="1" source="febSEECKOxPTXhG7_ZVh-230" target="febSEECKOxPTXhG7_ZVh-279" edge="1">
                    <mxGeometry width="50" height="50" relative="1" as="geometry">
                        <mxPoint x="1490" y="2310" as="sourcePoint"/>
                        <mxPoint x="1540" y="2260" as="targetPoint"/>
                    </mxGeometry>
                </mxCell>
                <mxCell id="febSEECKOxPTXhG7_ZVh-291" value="" style="endArrow=classic;html=1;fontSize=20;exitX=1;exitY=0.5;exitDx=0;exitDy=0;entryX=0;entryY=0.5;entryDx=0;entryDy=0;entryPerimeter=0;" parent="1" source="febSEECKOxPTXhG7_ZVh-231" target="febSEECKOxPTXhG7_ZVh-278" edge="1">
                    <mxGeometry width="50" height="50" relative="1" as="geometry">
                        <mxPoint x="1490" y="2310" as="sourcePoint"/>
                        <mxPoint x="1540" y="2260" as="targetPoint"/>
                    </mxGeometry>
                </mxCell>
                <mxCell id="febSEECKOxPTXhG7_ZVh-292" value="" style="endArrow=classic;html=1;fontSize=20;exitX=1;exitY=0.5;exitDx=0;exitDy=0;" parent="1" source="febSEECKOxPTXhG7_ZVh-232" edge="1">
                    <mxGeometry width="50" height="50" relative="1" as="geometry">
                        <mxPoint x="1490" y="2310" as="sourcePoint"/>
                        <mxPoint x="1570" y="2330" as="targetPoint"/>
                    </mxGeometry>
                </mxCell>
                <mxCell id="febSEECKOxPTXhG7_ZVh-293" value="" style="endArrow=classic;html=1;fontSize=20;exitX=1;exitY=0.5;exitDx=0;exitDy=0;" parent="1" source="febSEECKOxPTXhG7_ZVh-233" edge="1">
                    <mxGeometry width="50" height="50" relative="1" as="geometry">
                        <mxPoint x="1490" y="2310" as="sourcePoint"/>
                        <mxPoint x="1570" y="2390" as="targetPoint"/>
                    </mxGeometry>
                </mxCell>
                <mxCell id="febSEECKOxPTXhG7_ZVh-294" value="" style="endArrow=classic;html=1;fontSize=20;exitX=1;exitY=0.25;exitDx=0;exitDy=0;entryX=0;entryY=0.5;entryDx=0;entryDy=0;" parent="1" source="febSEECKOxPTXhG7_ZVh-237" target="febSEECKOxPTXhG7_ZVh-238" edge="1">
                    <mxGeometry width="50" height="50" relative="1" as="geometry">
                        <mxPoint x="1290" y="2600" as="sourcePoint"/>
                        <mxPoint x="1340" y="2550" as="targetPoint"/>
                    </mxGeometry>
                </mxCell>
                <mxCell id="febSEECKOxPTXhG7_ZVh-295" value="" style="endArrow=classic;html=1;fontSize=20;exitX=1;exitY=0.5;exitDx=0;exitDy=0;entryX=0;entryY=0.5;entryDx=0;entryDy=0;" parent="1" source="febSEECKOxPTXhG7_ZVh-237" target="febSEECKOxPTXhG7_ZVh-256" edge="1">
                    <mxGeometry width="50" height="50" relative="1" as="geometry">
                        <mxPoint x="1290" y="2600" as="sourcePoint"/>
                        <mxPoint x="1340" y="2550" as="targetPoint"/>
                    </mxGeometry>
                </mxCell>
                <mxCell id="febSEECKOxPTXhG7_ZVh-296" value="" style="endArrow=classic;html=1;fontSize=20;exitX=1;exitY=0.25;exitDx=0;exitDy=0;entryX=0;entryY=0.5;entryDx=0;entryDy=0;" parent="1" source="febSEECKOxPTXhG7_ZVh-238" target="febSEECKOxPTXhG7_ZVh-244" edge="1">
                    <mxGeometry width="50" height="50" relative="1" as="geometry">
                        <mxPoint x="1290" y="2720" as="sourcePoint"/>
                        <mxPoint x="1340" y="2670" as="targetPoint"/>
                    </mxGeometry>
                </mxCell>
                <mxCell id="febSEECKOxPTXhG7_ZVh-297" value="" style="endArrow=classic;html=1;fontSize=20;exitX=1;exitY=0.5;exitDx=0;exitDy=0;entryX=0;entryY=0.5;entryDx=0;entryDy=0;" parent="1" source="febSEECKOxPTXhG7_ZVh-238" target="febSEECKOxPTXhG7_ZVh-245" edge="1">
                    <mxGeometry width="50" height="50" relative="1" as="geometry">
                        <mxPoint x="1290" y="2720" as="sourcePoint"/>
                        <mxPoint x="1340" y="2670" as="targetPoint"/>
                    </mxGeometry>
                </mxCell>
                <mxCell id="febSEECKOxPTXhG7_ZVh-298" value="" style="endArrow=classic;html=1;fontSize=20;entryX=0;entryY=0.5;entryDx=0;entryDy=0;exitX=1;exitY=0.5;exitDx=0;exitDy=0;" parent="1" source="febSEECKOxPTXhG7_ZVh-238" target="febSEECKOxPTXhG7_ZVh-243" edge="1">
                    <mxGeometry width="50" height="50" relative="1" as="geometry">
                        <mxPoint x="1100" y="2680" as="sourcePoint"/>
                        <mxPoint x="1340" y="2670" as="targetPoint"/>
                    </mxGeometry>
                </mxCell>
                <mxCell id="febSEECKOxPTXhG7_ZVh-299" value="" style="endArrow=classic;html=1;fontSize=20;exitX=1;exitY=0.75;exitDx=0;exitDy=0;entryX=0;entryY=0.5;entryDx=0;entryDy=0;" parent="1" source="febSEECKOxPTXhG7_ZVh-238" target="febSEECKOxPTXhG7_ZVh-247" edge="1">
                    <mxGeometry width="50" height="50" relative="1" as="geometry">
                        <mxPoint x="1290" y="2720" as="sourcePoint"/>
                        <mxPoint x="1340" y="2670" as="targetPoint"/>
                    </mxGeometry>
                </mxCell>
                <mxCell id="febSEECKOxPTXhG7_ZVh-300" value="" style="endArrow=classic;html=1;fontSize=20;exitX=1;exitY=0.5;exitDx=0;exitDy=0;entryX=0;entryY=0.5;entryDx=0;entryDy=0;entryPerimeter=0;" parent="1" source="febSEECKOxPTXhG7_ZVh-244" target="febSEECKOxPTXhG7_ZVh-251" edge="1">
                    <mxGeometry width="50" height="50" relative="1" as="geometry">
                        <mxPoint x="1290" y="2720" as="sourcePoint"/>
                        <mxPoint x="1340" y="2670" as="targetPoint"/>
                    </mxGeometry>
                </mxCell>
                <mxCell id="febSEECKOxPTXhG7_ZVh-301" value="" style="endArrow=classic;html=1;fontSize=20;exitX=1;exitY=0.5;exitDx=0;exitDy=0;entryX=0;entryY=0.5;entryDx=0;entryDy=0;entryPerimeter=0;" parent="1" source="febSEECKOxPTXhG7_ZVh-245" target="febSEECKOxPTXhG7_ZVh-252" edge="1">
                    <mxGeometry width="50" height="50" relative="1" as="geometry">
                        <mxPoint x="1290" y="2720" as="sourcePoint"/>
                        <mxPoint x="1340" y="2670" as="targetPoint"/>
                    </mxGeometry>
                </mxCell>
                <mxCell id="febSEECKOxPTXhG7_ZVh-302" value="" style="endArrow=classic;html=1;fontSize=20;exitX=1;exitY=0.5;exitDx=0;exitDy=0;entryX=0;entryY=0.5;entryDx=0;entryDy=0;entryPerimeter=0;" parent="1" source="febSEECKOxPTXhG7_ZVh-243" target="febSEECKOxPTXhG7_ZVh-253" edge="1">
                    <mxGeometry width="50" height="50" relative="1" as="geometry">
                        <mxPoint x="1290" y="2720" as="sourcePoint"/>
                        <mxPoint x="1340" y="2670" as="targetPoint"/>
                    </mxGeometry>
                </mxCell>
                <mxCell id="febSEECKOxPTXhG7_ZVh-303" value="" style="endArrow=classic;html=1;fontSize=20;exitX=1;exitY=0.5;exitDx=0;exitDy=0;entryX=0;entryY=0.5;entryDx=0;entryDy=0;entryPerimeter=0;" parent="1" source="febSEECKOxPTXhG7_ZVh-247" target="febSEECKOxPTXhG7_ZVh-254" edge="1">
                    <mxGeometry width="50" height="50" relative="1" as="geometry">
                        <mxPoint x="1290" y="2720" as="sourcePoint"/>
                        <mxPoint x="1340" y="2670" as="targetPoint"/>
                    </mxGeometry>
                </mxCell>
                <mxCell id="febSEECKOxPTXhG7_ZVh-304" value="" style="endArrow=classic;html=1;fontSize=20;exitX=1;exitY=0.5;exitDx=0;exitDy=0;exitPerimeter=0;entryX=0;entryY=0.15;entryDx=0;entryDy=0;entryPerimeter=0;" parent="1" source="febSEECKOxPTXhG7_ZVh-251" target="febSEECKOxPTXhG7_ZVh-246" edge="1">
                    <mxGeometry width="50" height="50" relative="1" as="geometry">
                        <mxPoint x="1290" y="2720" as="sourcePoint"/>
                        <mxPoint x="1340" y="2670" as="targetPoint"/>
                    </mxGeometry>
                </mxCell>
                <mxCell id="febSEECKOxPTXhG7_ZVh-305" value="" style="endArrow=classic;html=1;fontSize=20;exitX=1;exitY=0.5;exitDx=0;exitDy=0;exitPerimeter=0;entryX=0;entryY=0.5;entryDx=0;entryDy=0;entryPerimeter=0;" parent="1" source="febSEECKOxPTXhG7_ZVh-252" target="febSEECKOxPTXhG7_ZVh-246" edge="1">
                    <mxGeometry width="50" height="50" relative="1" as="geometry">
                        <mxPoint x="1290" y="2720" as="sourcePoint"/>
                        <mxPoint x="1340" y="2670" as="targetPoint"/>
                    </mxGeometry>
                </mxCell>
                <mxCell id="febSEECKOxPTXhG7_ZVh-306" value="" style="endArrow=classic;html=1;fontSize=20;exitX=1;exitY=0.5;exitDx=0;exitDy=0;exitPerimeter=0;entryX=0;entryY=0.667;entryDx=0;entryDy=0;entryPerimeter=0;" parent="1" source="febSEECKOxPTXhG7_ZVh-253" target="febSEECKOxPTXhG7_ZVh-246" edge="1">
                    <mxGeometry width="50" height="50" relative="1" as="geometry">
                        <mxPoint x="1290" y="2720" as="sourcePoint"/>
                        <mxPoint x="1340" y="2670" as="targetPoint"/>
                    </mxGeometry>
                </mxCell>
                <mxCell id="febSEECKOxPTXhG7_ZVh-307" value="" style="endArrow=classic;html=1;fontSize=20;exitX=1;exitY=0.5;exitDx=0;exitDy=0;exitPerimeter=0;entryX=0;entryY=0.85;entryDx=0;entryDy=0;entryPerimeter=0;" parent="1" source="febSEECKOxPTXhG7_ZVh-254" target="febSEECKOxPTXhG7_ZVh-246" edge="1">
                    <mxGeometry width="50" height="50" relative="1" as="geometry">
                        <mxPoint x="1290" y="2720" as="sourcePoint"/>
                        <mxPoint x="1340" y="2670" as="targetPoint"/>
                    </mxGeometry>
                </mxCell>
                <mxCell id="febSEECKOxPTXhG7_ZVh-308" value="" style="endArrow=classic;html=1;fontSize=20;exitX=1;exitY=0.5;exitDx=0;exitDy=0;exitPerimeter=0;entryX=0;entryY=0.5;entryDx=0;entryDy=0;" parent="1" source="febSEECKOxPTXhG7_ZVh-246" target="febSEECKOxPTXhG7_ZVh-255" edge="1">
                    <mxGeometry width="50" height="50" relative="1" as="geometry">
                        <mxPoint x="1290" y="2720" as="sourcePoint"/>
                        <mxPoint x="1340" y="2670" as="targetPoint"/>
                    </mxGeometry>
                </mxCell>
                <mxCell id="febSEECKOxPTXhG7_ZVh-309" value="" style="endArrow=classic;html=1;fontSize=20;exitX=1;exitY=0.5;exitDx=0;exitDy=0;entryX=0.5;entryY=1;entryDx=0;entryDy=0;dashed=1;" parent="1" source="febSEECKOxPTXhG7_ZVh-256" target="febSEECKOxPTXhG7_ZVh-255" edge="1">
                    <mxGeometry width="50" height="50" relative="1" as="geometry">
                        <mxPoint x="1290" y="2720" as="sourcePoint"/>
                        <mxPoint x="1340" y="2670" as="targetPoint"/>
                    </mxGeometry>
                </mxCell>
            </root>
        </mxGraphModel>
    </diagram>
</mxfile>